<svg width="150" height="96" viewBox="0 0 45 29" fill="none" xmlns="http://www.w3.org/2000/svg">
<path d="M37.4052 10.3414C37.4052 15.5562 30.6063 19.7807 22.2121 19.7807C13.818 19.7807 7.01904 15.5562 7.01904 10.3414C7.01904 5.13773 13.818 0.913147 22.2121 0.913147C30.6063 0.924148 37.4052 5.14873 37.4052 10.3414Z" fill="#1D1D1B"/>
<path d="M37.4052 9.4393C37.4052 14.654 30.6063 18.8786 22.2121 18.8786C13.818 18.8786 7.01904 14.654 7.01904 9.4393C7.01904 4.23558 13.818 0 22.2121 0C30.6063 0 37.4052 4.22458 37.4052 9.4393Z" fill="url(#paint0_linear_2171_10296)"/>
<path d="M25.3033 11.0896C22.817 8.18518 24.4782 5.88587 25.6004 4.99474C28.0757 3.00347 30.8151 2.07934 31.3762 1.90332C31.0791 1.7713 30.7821 1.63928 30.4741 1.50726C26.3265 2.67342 23.7631 4.71971 23.3011 5.01675C19.7806 7.29406 21.1888 9.7364 21.4748 10.2315C23.5651 13.939 27.5917 17.6575 28.0977 18.1195C29.3299 17.8005 30.4851 17.3824 31.5192 16.8764C28.0867 14.5331 25.7874 11.6837 25.3033 11.0896Z" fill="#009640"/>
<path d="M22.1899 4.57665C23.9502 3.20146 28.6038 1.35321 29.2859 1.08917C28.8898 0.957153 28.4828 0.836135 28.0757 0.737122C24.9953 1.74926 21.1888 3.4765 18.7574 5.17073C16.0181 7.05199 16.0511 8.86724 16.7552 10.7375C18.1744 14.412 21.4638 18.3175 21.9479 18.8676C22.0249 18.8676 22.1239 18.8676 22.2119 18.8676C23.6091 18.8676 24.9513 18.7466 26.2275 18.5376C23.059 15.2591 20.5617 11.1005 20.3527 10.6385C18.6364 6.69994 20.9467 5.54479 22.1899 4.57665Z" fill="#E30613"/>
<path d="M18.8125 4.22451C21.3538 2.57428 24.3022 1.33111 26.6125 0.406979C26.2605 0.340969 25.9084 0.285965 25.5564 0.230957C24.8193 0.428984 20.2427 1.69416 16.6782 3.66343C16.1391 3.94947 13.3337 5.52268 12.2556 7.37094C11.1994 9.2302 12.0795 11.4415 12.8166 13.0477C13.5207 14.5879 14.8079 16.7112 15.71 17.9654C16.9642 18.3284 18.3284 18.6035 19.7586 18.7465C19.1535 17.9764 15.512 13.1687 15.0499 10.1213C14.9179 9.2412 14.5109 7.00789 18.8125 4.22451Z" fill="#312783"/>
<path d="M1.4522 24.8194C2.42033 24.8194 3.12443 24.8194 3.12443 26.4916C3.12443 28.1089 2.51935 28.1529 1.74924 28.1529H1.00114V24.8194H1.4522ZM0 23.9723V29H1.88126C2.2003 29 3.02542 29 3.53148 28.4389C4.15857 27.7458 4.15857 26.8327 4.15857 26.5356C4.15857 25.5565 3.90554 25.0834 3.74051 24.8194C3.21244 23.9723 2.38733 23.9723 1.82625 23.9723H0Z" fill="#1D1D1B"/>
<path d="M6.79905 24.5994C7.51415 24.5994 7.63516 24.5994 7.77818 24.6434C8.03122 24.7094 8.15223 24.9514 8.15223 25.1715C8.15223 25.7105 7.63516 25.7435 7.30512 25.7435H6.21597V24.5884H6.79905V24.5994ZM5.22583 23.7523V28.78H6.90906C7.96521 28.78 8.28425 28.7579 8.57029 28.6369C9.10936 28.3949 9.3734 27.8228 9.3734 27.3278C9.3734 27.0417 9.28539 26.3596 8.43827 26.1066C8.88933 25.8976 9.13137 25.4575 9.13137 25.0174C9.13137 24.5664 8.88933 24.2253 8.60329 24.0163C8.28425 23.7853 7.8882 23.7523 7.2061 23.7523H5.22583ZM7.03008 26.6017C7.73417 26.6017 8.35026 26.6016 8.35026 27.2837C8.35026 27.4378 8.30625 27.7348 7.9432 27.8668C7.78918 27.9218 7.37113 27.9218 7.1511 27.9218H6.22697V26.5906H7.03008V26.6017Z" fill="#1D1D1B"/>
<path d="M11.7937 24.5994C12.5088 24.5994 12.6298 24.5994 12.7728 24.6434C13.0258 24.7094 13.1469 24.9514 13.1469 25.1715C13.1469 25.7105 12.6298 25.7435 12.2997 25.7435H11.2106V24.5884H11.7937V24.5994ZM10.2205 23.7523V28.78H11.9147C12.9708 28.78 13.2899 28.7579 13.5759 28.6369C14.104 28.3949 14.379 27.8228 14.379 27.3278C14.379 27.0417 14.291 26.3596 13.4439 26.1066C13.895 25.8976 14.137 25.4575 14.137 25.0174C14.137 24.5664 13.895 24.2253 13.6089 24.0163C13.2899 23.7853 12.8938 23.7523 12.2117 23.7523H10.2205ZM12.0247 26.6017C12.7178 26.6017 13.3339 26.6016 13.3339 27.2837C13.3339 27.4378 13.2899 27.7348 12.9268 27.8668C12.7728 27.9218 12.3548 27.9218 12.1347 27.9218H11.2106V26.5906H12.0247V26.6017Z" fill="#1D1D1B"/>
<path d="M15.2151 23.7523H16.2052V27.9328H18.7026V28.78H15.2151V23.7523Z" fill="#1D1D1B"/>
<path d="M21.387 23.7523H22.3551L24.3684 27.1077H24.3794V23.7523H25.3035V28.78H24.3024L22.3221 25.5015H22.3111V28.78H21.387V23.7523Z" fill="#1D1D1B"/>
<path d="M26.3596 23.7523H30.0341V24.5994H27.3608V25.7215H29.8471V26.5686H27.3608V27.9328H30.1221V28.78H26.3596V23.7523Z" fill="#1D1D1B"/>
<path d="M32.1461 26.1506L30.6169 23.7523H31.7831L32.7842 25.3695L33.7524 23.7523H34.9075L33.3673 26.1946L35.0615 28.78H33.8624L32.7622 27.0417L31.6621 28.78H30.4519L32.1461 26.1506Z" fill="#1D1D1B"/>
<path d="M36.5915 23.7523V26.4696C36.5915 27.0637 36.5915 27.3167 36.7125 27.5478C36.8995 27.9108 37.2846 27.9878 37.5926 27.9878C38.5497 27.9878 38.5497 27.3718 38.5497 26.5136V23.7523H39.5399V26.3926C39.5399 27.2947 39.5069 27.7898 39.2648 28.1749C38.8798 28.7689 38.1757 28.868 37.6146 28.868C35.5903 28.868 35.5903 27.5918 35.5903 26.4366V23.7523H36.5915Z" fill="#1D1D1B"/>
<path d="M41.3324 27.0527C41.3764 27.3167 41.5084 28.0208 42.4105 28.0208C43.1146 28.0208 43.3896 27.6468 43.3896 27.3277C43.3896 26.9097 43.0486 26.8107 42.1355 26.5906C41.6404 26.4586 40.5513 26.1946 40.5513 25.0834C40.5513 24.5333 40.9033 23.6752 42.3555 23.6752C43.3236 23.6752 44.2148 24.0603 44.2588 25.2044L43.2576 25.2484C43.2136 24.9844 43.1366 24.5113 42.3555 24.5113C42.0585 24.5113 41.5194 24.5994 41.5194 25.0064C41.5194 25.3255 41.8274 25.4685 42.6305 25.6555C43.3896 25.8425 44.4128 26.0846 44.4128 27.3167C44.4128 27.9328 44.0277 28.4389 43.5987 28.6369C43.1586 28.8459 42.6635 28.8679 42.4325 28.8679C41.8934 28.8679 40.5843 28.8129 40.3862 27.1407L41.3324 27.0527Z" fill="#1D1D1B"/>
<defs>
<linearGradient id="paint0_linear_2171_10296" x1="5.71038" y1="9.43692" x2="36.196" y2="9.43692" gradientUnits="userSpaceOnUse">
<stop stop-color="#BBBBBB"/>
<stop offset="1" stop-color="white"/>
</linearGradient>
</defs>
</svg>
