<?xml version="1.0" encoding="UTF-8"?>
<!DOCTYPE svg PUBLIC "-//W3C//DTD SVG 1.1//EN" "http://www.w3.org/Graphics/SVG/1.1/DTD/svg11.dtd">
<svg xmlns="http://www.w3.org/2000/svg" version="1.1" width="1200px" height="1200px" style="shape-rendering:geometricPrecision; text-rendering:geometricPrecision; image-rendering:optimizeQuality; fill-rule:evenodd; clip-rule:evenodd" xmlns:xlink="http://www.w3.org/1999/xlink">
<g><path style="opacity:0.91" fill="#000000" d="M 581.5,210.5 C 672.073,208.052 746.573,241.052 805,309.5C 861.43,384.329 876.763,466.995 851,557.5C 816.474,654.029 749.307,713.862 649.5,737C 541.748,754.096 453.582,720.596 385,636.5C 332.786,562.886 319.119,482.553 344,395.5C 375.262,306.279 436.095,247.779 526.5,220C 544.722,215.318 563.056,212.152 581.5,210.5 Z M 596.5,222.5 C 690.476,225.718 762.976,266.385 814,344.5C 850.865,408.087 859.865,475.42 841,546.5C 814.957,627.876 762.124,684.042 682.5,715C 592.796,743.384 510.796,729.051 436.5,672C 357.331,601.149 329.498,513.649 353,409.5C 379.898,321.837 436.731,263.337 523.5,234C 547.506,227.12 571.839,223.287 596.5,222.5 Z M 546.5,331.5 C 583.502,331.333 620.502,331.5 657.5,332C 679.433,335.932 692.933,348.766 698,370.5C 699.606,394.797 699.94,419.131 699,443.5C 680.829,463.678 659.329,479.178 634.5,490C 612.415,498.572 590.415,498.238 568.5,489C 543.999,478.826 523.165,463.66 506,443.5C 505.333,419.5 505.333,395.5 506,371.5C 511.157,349.508 524.657,336.175 546.5,331.5 Z M 539.5,358.5 C 581.839,358.167 624.172,358.5 666.5,359.5C 661.941,387.746 657.941,416.08 654.5,444.5C 620.167,444.5 585.833,444.5 551.5,444.5C 547.593,415.819 543.593,387.153 539.5,358.5 Z M 645.5,521.5 C 658.09,524.677 661.423,532.011 655.5,543.5C 647.413,550.122 640.246,549.122 634,540.5C 631.682,530.473 635.515,524.139 645.5,521.5 Z M 555.5,522.5 C 568.059,523.214 572.559,529.548 569,541.5C 560.855,549.921 553.522,549.254 547,539.5C 545.067,531.366 547.9,525.699 555.5,522.5 Z M 558.5,587.5 C 585.835,587.333 613.169,587.5 640.5,588C 643.167,589.667 645.833,591.333 648.5,593C 615.833,593.667 583.167,593.667 550.5,593C 553.407,591.391 556.073,589.558 558.5,587.5 Z M 532.5,604.5 C 577.168,604.333 621.835,604.5 666.5,605C 668.833,606.667 671.167,608.333 673.5,610C 624.167,610.667 574.833,610.667 525.5,610C 528.02,608.303 530.353,606.47 532.5,604.5 Z"/></g>
<g><path style="opacity:0.964" fill="#000000" d="M 572.5,307.5 C 574.827,307.247 576.827,307.914 578.5,309.5C 579.426,313.094 579.759,316.76 579.5,320.5C 594.833,320.5 610.167,320.5 625.5,320.5C 625.335,317.15 625.502,313.817 626,310.5C 629.333,306.5 632.667,306.5 636,310.5C 636.498,313.817 636.665,317.15 636.5,320.5C 677.398,316.603 701.898,334.603 710,374.5C 710.975,429.865 710.641,485.198 709,540.5C 702.655,565.678 686.822,581.344 661.5,587.5C 684.876,603.611 708.376,619.611 732,635.5C 733.872,640.692 732.205,643.692 727,644.5C 714.939,637.454 703.105,629.954 691.5,622C 630.167,621.333 568.833,621.333 507.5,622C 496.167,629.333 484.833,636.667 473.5,644C 468.201,645.033 465.701,642.866 466,637.5C 466.465,636.069 467.299,634.903 468.5,634C 492.167,618.333 515.833,602.667 539.5,587C 517.11,580.389 502.61,565.889 496,543.5C 494.857,513.533 494.357,483.533 494.5,453.5C 494.353,423.795 494.853,394.128 496,364.5C 503.673,340.492 519.84,325.992 544.5,321C 552.493,320.5 560.493,320.334 568.5,320.5C 568.335,317.15 568.502,313.817 569,310.5C 570.145,309.364 571.312,308.364 572.5,307.5 Z M 546.5,331.5 C 524.657,336.175 511.157,349.508 506,371.5C 505.333,395.5 505.333,419.5 506,443.5C 523.165,463.66 543.999,478.826 568.5,489C 590.415,498.238 612.415,498.572 634.5,490C 659.329,479.178 680.829,463.678 699,443.5C 699.94,419.131 699.606,394.797 698,370.5C 692.933,348.766 679.433,335.932 657.5,332C 620.502,331.5 583.502,331.333 546.5,331.5 Z M 539.5,358.5 C 543.593,387.153 547.593,415.819 551.5,444.5C 585.833,444.5 620.167,444.5 654.5,444.5C 657.941,416.08 661.941,387.746 666.5,359.5C 624.172,358.5 581.839,358.167 539.5,358.5 Z M 645.5,521.5 C 635.515,524.139 631.682,530.473 634,540.5C 640.246,549.122 647.413,550.122 655.5,543.5C 661.423,532.011 658.09,524.677 645.5,521.5 Z M 555.5,522.5 C 547.9,525.699 545.067,531.366 547,539.5C 553.522,549.254 560.855,549.921 569,541.5C 572.559,529.548 568.059,523.214 555.5,522.5 Z M 558.5,587.5 C 556.073,589.558 553.407,591.391 550.5,593C 583.167,593.667 615.833,593.667 648.5,593C 645.833,591.333 643.167,589.667 640.5,588C 613.169,587.5 585.835,587.333 558.5,587.5 Z M 532.5,604.5 C 530.353,606.47 528.02,608.303 525.5,610C 574.833,610.667 624.167,610.667 673.5,610C 671.167,608.333 668.833,606.667 666.5,605C 621.835,604.5 577.168,604.333 532.5,604.5 Z"/></g>
<g><path style="opacity:0.929" fill="#000000" d="M 530.5,346.5 C 579.584,346.01 628.584,346.51 677.5,348C 678.848,349.574 679.514,351.407 679.5,353.5C 674.934,387.295 669.768,420.962 664,454.5C 663.5,455 663,455.5 662.5,456C 622.833,456.667 583.167,456.667 543.5,456C 541.114,454.113 539.947,451.613 540,448.5C 534.725,415.581 530.392,382.581 527,349.5C 528.145,348.364 529.312,347.364 530.5,346.5 Z M 539.5,358.5 C 543.593,387.153 547.593,415.819 551.5,444.5C 585.833,444.5 620.167,444.5 654.5,444.5C 657.941,416.08 661.941,387.746 666.5,359.5C 624.172,358.5 581.839,358.167 539.5,358.5 Z"/></g>
<g><path style="opacity:0.844" fill="#000000" d="M 200.5,801.5 C 207.383,801.733 210.383,805.399 209.5,812.5C 215.898,812.243 222.231,812.743 228.5,814C 235.378,816.921 238.211,822.088 237,829.5C 235.167,832 233.333,834.5 231.5,837C 229.866,837.494 228.199,837.66 226.5,837.5C 226.649,838.552 226.483,839.552 226,840.5C 215.809,848.844 204.643,855.51 192.5,860.5C 192.5,862.167 192.5,863.833 192.5,865.5C 188.818,865.665 185.152,865.499 181.5,865C 179.131,862.43 177.131,859.596 175.5,856.5C 177.058,853.313 179.225,850.647 182,848.5C 183.473,841.985 185.473,835.652 188,829.5C 187.863,825.714 187.196,822.047 186,818.5C 189,816.833 192,815.167 195,813.5C 197.136,809.567 198.969,805.567 200.5,801.5 Z M 218.5,822.5 C 221.247,822.187 223.914,822.52 226.5,823.5C 226,824.5 225.5,825.5 225,826.5C 221.844,828.657 219.011,831.157 216.5,834C 210.501,836.752 204.668,839.918 199,843.5C 199.364,838.374 200.53,833.374 202.5,828.5C 207.727,825.873 213.06,823.873 218.5,822.5 Z"/></g>
<g><path style="opacity:0.83" fill="#000000" d="M 376.5,804.5 C 381.962,805.803 384.629,809.303 384.5,815C 383.273,819.926 381.44,824.426 379,828.5C 390.228,822.885 401.561,817.552 413,812.5C 415.459,812.89 417.126,814.224 418,816.5C 418.497,819.146 418.664,821.813 418.5,824.5C 412.373,826.822 406.706,829.989 401.5,834C 394.418,835.211 387.751,837.544 381.5,841C 386.238,846.633 391.571,851.3 397.5,855C 398.833,855.667 398.833,856.333 397.5,857C 399.896,857.866 400.563,857.366 399.5,855.5C 401.952,854.686 404.285,855.186 406.5,857C 406.167,857.333 405.833,857.667 405.5,858C 407.171,859.844 409.171,860.51 411.5,860C 413.241,855.015 415.408,850.181 418,845.5C 427.748,832.414 438.248,819.914 449.5,808C 454.049,805.711 458.383,806.045 462.5,809C 466.199,817.933 466.199,826.933 462.5,836C 464.784,838.741 465.784,841.908 465.5,845.5C 464.07,845.421 462.736,845.754 461.5,846.5C 460.723,848.781 459.723,850.948 458.5,853C 458.957,853.414 459.291,853.914 459.5,854.5C 458.129,859.764 457.129,865.097 456.5,870.5C 452.197,871.204 448.697,869.87 446,866.5C 446.337,860.801 447.171,855.134 448.5,849.5C 441.696,851.235 435.363,854.068 429.5,858C 428.428,861.649 426.928,865.149 425,868.5C 424.107,869.081 423.107,869.415 422,869.5C 414.673,867.261 407.173,865.761 399.5,865C 388.5,859.748 378,853.581 368,846.5C 367.113,849.623 365.279,851.957 362.5,853.5C 362.833,854.167 363.167,854.833 363.5,855.5C 361.562,859.314 360.229,863.314 359.5,867.5C 355.461,868.34 352.461,867.007 350.5,863.5C 349.623,859.461 349.623,855.628 350.5,852C 357.768,835.29 366.434,819.456 376.5,804.5 Z M 453.5,822.5 C 454.091,823.151 454.757,823.818 455.5,824.5C 454.324,828.83 452.491,832.83 450,836.5C 446.873,837.598 443.707,838.598 440.5,839.5C 443.949,833.136 448.282,827.47 453.5,822.5 Z M 407.5,862.5 C 409.262,862.643 410.929,862.309 412.5,861.5C 413.386,862.325 413.719,863.325 413.5,864.5C 411.214,864.405 409.214,863.738 407.5,862.5 Z"/></g>
<g><path style="opacity:0.827" fill="#000000" d="M 260.5,805.5 C 271.439,805.8 274.606,811.133 270,821.5C 267.873,825.589 265.373,829.423 262.5,833C 267.134,832.945 271.801,832.445 276.5,831.5C 281.465,824.409 285.798,816.909 289.5,809C 293.744,807.737 296.244,809.237 297,813.5C 297.823,817.738 297.156,821.738 295,825.5C 293.148,828.711 291.481,832.044 290,835.5C 288.59,836.787 287.09,837.954 285.5,839C 286.517,840.049 286.684,841.216 286,842.5C 283.261,849.505 279.428,855.671 274.5,861C 275.448,861.483 276.448,861.649 277.5,861.5C 276.22,866.726 273.887,871.393 270.5,875.5C 267.23,873.733 264.397,871.4 262,868.5C 261.287,864.493 261.787,860.66 263.5,857C 262.692,856.692 262.025,856.192 261.5,855.5C 262.246,854.264 262.579,852.93 262.5,851.5C 265.321,851.684 266.988,850.351 267.5,847.5C 263.114,846.595 258.947,846.595 255,847.5C 252.447,853.99 250.613,860.657 249.5,867.5C 243.153,868.103 239.486,865.27 238.5,859C 239.406,856.209 240.073,853.376 240.5,850.5C 237.15,850.665 233.817,850.498 230.5,850C 234.609,847.734 238.609,845.234 242.5,842.5C 247.726,829.715 253.726,817.382 260.5,805.5 Z"/></g>
<g><path style="opacity:0.837" fill="#000000" d="M 694.5,821.5 C 684.046,822.643 673.713,824.476 663.5,827C 660.669,832.164 658.002,837.331 655.5,842.5C 654.692,844.423 654.192,846.423 654,848.5C 653.25,849.126 652.416,849.626 651.5,850C 652.022,850.561 652.355,851.228 652.5,852C 651.333,855.5 650.167,859 649,862.5C 648.882,864.573 647.882,865.907 646,866.5C 643.032,866.185 640.698,864.852 639,862.5C 638.5,859.5 638,856.5 637.5,853.5C 640.109,844.671 643.109,836.004 646.5,827.5C 641.851,828.295 637.184,828.461 632.5,828C 631.108,825.276 629.942,822.443 629,819.5C 620.524,823.131 611.691,825.631 602.5,827C 600.699,828.387 600.032,829.887 600.5,831.5C 605.035,829.697 609.702,828.863 614.5,829C 617.288,831.523 618.621,834.69 618.5,838.5C 609.971,839.477 601.638,841.31 593.5,844C 591.679,847.294 590.346,850.794 589.5,854.5C 589.952,856.312 591.118,857.312 593,857.5C 600.361,856.702 607.527,855.035 614.5,852.5C 617.422,852.899 620.422,853.066 623.5,853C 621.255,855.087 618.588,856.421 615.5,857C 617.221,857.739 618.887,858.573 620.5,859.5C 619.91,860.799 618.91,861.632 617.5,862C 606.683,867.009 595.683,867.675 584.5,864C 578.788,858.331 576.955,851.497 579,843.5C 581.865,835.438 585.531,827.771 590,820.5C 590.27,817.776 590.77,815.109 591.5,812.5C 595.192,811.31 598.192,809.143 600.5,806C 604.225,805.24 607.892,805.407 611.5,806.5C 612.363,808.771 612.363,811.105 611.5,813.5C 613.857,813.337 616.19,813.503 618.5,814C 621.696,814.941 624.863,816.108 628,817.5C 629.059,817.37 629.892,816.87 630.5,816C 637.911,815.892 645.245,815.225 652.5,814C 654.743,811.512 656.743,808.846 658.5,806C 663.04,804.641 666.04,806.141 667.5,810.5C 668.5,810.833 669.5,811.167 670.5,811.5C 676.42,809.874 682.42,809.374 688.5,810C 690.081,810.707 691.581,811.54 693,812.5C 693.673,815.407 694.173,818.407 694.5,821.5 Z"/></g>
<g><path style="opacity:0.866" fill="#000000" d="M 694.5,821.5 C 697.685,816.313 701.018,811.146 704.5,806C 710.569,804.555 713.402,807.055 713,813.5C 719.849,810.793 726.682,810.96 733.5,814C 735.347,816.579 735.847,819.412 735,822.5C 729.228,828.835 722.728,834.002 715.5,838C 714.167,838.333 712.833,838.667 711.5,839C 717.198,845.032 723.198,850.699 729.5,856C 733.578,859.043 737.911,859.71 742.5,858C 738.345,848.669 738.845,839.502 744,830.5C 751.682,819.468 762.015,812.468 775,809.5C 779.953,809.462 782.953,811.795 784,816.5C 787.035,819.87 790.368,822.87 794,825.5C 797.843,833.087 797.01,840.087 791.5,846.5C 786.322,849.922 781.322,853.589 776.5,857.5C 774.056,858.222 771.722,859.222 769.5,860.5C 768.558,860.392 767.725,860.059 767,859.5C 766.682,861.061 765.849,862.228 764.5,863C 759.917,864.145 755.251,864.811 750.5,865C 742.823,871.893 734.489,873.226 725.5,869C 717.333,860.167 709.167,851.333 701,842.5C 696.052,848.028 693.718,854.362 694,861.5C 692.281,863.557 690.281,865.224 688,866.5C 682.9,864.49 680.4,860.657 680.5,855C 684.681,843.62 689.348,832.453 694.5,821.5 Z M 774.5,826.5 C 779.228,826.375 782.561,828.542 784.5,833C 782.113,837.053 778.78,840.053 774.5,842C 767.5,844.833 760.5,847.667 753.5,850.5C 752.417,849.635 752.251,848.635 753,847.5C 754.08,845.004 755.414,842.67 757,840.5C 762.466,835.182 768.3,830.515 774.5,826.5 Z"/></g>
<g><path style="opacity:0.854" fill="#000000" d="M 848.5,805.5 C 854.701,804.534 857.535,807.2 857,813.5C 864.153,810.624 871.153,810.957 878,814.5C 879.71,817.423 879.877,820.423 878.5,823.5C 875.683,825.817 873.016,828.317 870.5,831C 869.551,831.617 868.718,831.451 868,830.5C 864.92,835.506 860.754,838.173 855.5,838.5C 861.934,846.438 869.434,853.104 878,858.5C 880.637,851.223 884.304,844.556 889,838.5C 897.243,827.866 906.077,817.699 915.5,808C 920.049,805.711 924.383,806.045 928.5,809C 932.41,817.98 932.41,826.98 928.5,836C 930.235,838.637 931.568,841.47 932.5,844.5C 930.892,845.318 929.225,845.985 927.5,846.5C 925.466,853.698 923.966,861.032 923,868.5C 918.199,871.238 914.366,870.071 911.5,865C 912.612,859.837 913.612,854.671 914.5,849.5C 907.696,851.235 901.363,854.068 895.5,858C 896.687,859.019 897.687,860.186 898.5,861.5C 893.225,868.256 886.225,871.923 877.5,872.5C 874.716,871.608 872.05,870.442 869.5,869C 861.333,860.167 853.167,851.333 845,842.5C 840.042,848.043 837.709,854.377 838,861.5C 836.5,863 835,864.5 833.5,866C 831.711,866.52 830.044,866.187 828.5,865C 824.009,859.525 823.509,853.692 827,847.5C 832.872,832.754 840.039,818.754 848.5,805.5 Z M 906.5,839.5 C 910.023,832.802 914.523,826.802 920,821.5C 921.602,824.425 921.602,827.425 920,830.5C 917.676,831.807 916.343,833.807 916,836.5C 912.873,837.598 909.707,838.598 906.5,839.5 Z"/></g>
<g><path style="opacity:0.828" fill="#000000" d="M 961.5,805.5 C 965.563,804.891 968.73,806.225 971,809.5C 971.429,820.826 967.263,830.326 958.5,838C 958.957,838.414 959.291,838.914 959.5,839.5C 954.765,848.374 951.432,857.708 949.5,867.5C 939.237,866.328 935.403,860.662 938,850.5C 940.502,842.493 943.836,834.826 948,827.5C 952.725,820.281 957.225,812.948 961.5,805.5 Z"/></g>
<g><path style="opacity:0.816" fill="#000000" d="M 995.5,805.5 C 1003.39,805.565 1006.23,809.565 1004,817.5C 999.64,827.056 994.14,835.89 987.5,844C 991.184,844.001 994.85,843.501 998.5,842.5C 1006.66,843.259 1014.66,842.259 1022.5,839.5C 1024.64,840.106 1026.81,839.773 1029,838.5C 1031.94,841.531 1031.1,843.697 1026.5,845C 1027.5,845.333 1028.5,845.667 1029.5,846C 1021.63,850.18 1013.3,853.18 1004.5,855C 998.021,857.409 991.688,860.075 985.5,863C 977.992,865.214 972.326,863.048 968.5,856.5C 970.943,846.612 974.776,837.279 980,828.5C 984.997,820.679 990.163,813.012 995.5,805.5 Z"/></g>
<g><path style="opacity:0.836" fill="#000000" d="M 333.5,806.5 C 337.077,806.205 340.243,807.205 343,809.5C 346.344,818.415 346.177,827.248 342.5,836C 344.235,838.637 345.568,841.47 346.5,844.5C 344.892,845.318 343.225,845.985 341.5,846.5C 339.466,853.698 337.966,861.032 337,868.5C 332.199,871.238 328.366,870.071 325.5,865C 326.612,859.837 327.612,854.671 328.5,849.5C 321.696,851.235 315.363,854.068 309.5,858C 308.387,861.894 306.72,865.561 304.5,869C 302.287,869.626 300.12,869.459 298,868.5C 296.186,865.712 294.019,863.212 291.5,861C 293.878,852.745 297.711,845.245 303,838.5C 311.243,827.866 320.077,817.699 329.5,808C 331.058,807.79 332.391,807.29 333.5,806.5 Z M 320.5,839.5 C 324.023,832.802 328.523,826.802 334,821.5C 335.602,824.425 335.602,827.425 334,830.5C 331.676,831.807 330.343,833.807 330,836.5C 326.873,837.598 323.707,838.598 320.5,839.5 Z"/></g>
<g><path style="opacity:0.846" fill="#000000" d="M 525.5,807.5 C 533.199,806.352 537.699,809.685 539,817.5C 539.333,820.167 539.667,822.833 540,825.5C 547.613,819.426 556.113,814.76 565.5,811.5C 573.776,815.387 576.61,821.72 574,830.5C 572.795,831.071 571.628,831.738 570.5,832.5C 571.813,834.518 571.147,835.685 568.5,836C 568.306,837.763 568.306,839.597 568.5,841.5C 567.526,845.963 565.526,849.796 562.5,853C 563.409,856.755 562.575,860.255 560,863.5C 552.329,865.196 547.829,862.029 546.5,854C 549.595,845.999 552.762,838.166 556,830.5C 548.589,836.234 541.422,842.401 534.5,849C 526.773,851.724 522.773,849.057 522.5,841C 524.033,835.745 525.533,830.579 527,825.5C 519.165,835.829 512.331,846.829 506.5,858.5C 505.675,859.386 504.675,859.719 503.5,859.5C 503.5,861.5 503.5,863.5 503.5,865.5C 501.473,865.662 499.473,865.495 497.5,865C 493.376,862.58 491.543,859.08 492,854.5C 500.669,837.007 511.835,821.34 525.5,807.5 Z"/></g>
</svg>
