<svg width="228" height="217" viewBox="0 0 228 217" fill="none" xmlns="http://www.w3.org/2000/svg">
<path opacity="0.4" d="M227.475 125.354C231.415 147.947 209.029 179.625 176.531 197.005C124.1 225.041 30.2935 212.591 4.93286 142.849C-8.5601 105.759 7.70811 83.733 28.6299 76.7641C50.0959 69.619 79.0675 81.801 93.7641 63.0949C104.819 49.0193 118.082 34.2537 135.102 27.4382C163.184 16.1915 208.799 25.5292 194.21 80.95C188.276 103.451 222.192 95.0716 227.475 125.354Z" fill="#DEEAFF"/>
<path d="M4.92519 153.812C4.92519 153.812 9.5404 168.018 19.6908 178.636L31.7961 179.817L22.3357 181.197C23.616 182.354 24.996 183.443 26.4756 184.447C35.66 190.711 45.5497 194.743 53.1395 195.778C57.862 196.43 61.7029 195.909 63.9262 194.046C69.7144 189.185 62.3239 177.011 47.4203 166.853C43.1655 163.947 37.8603 161.64 32.4708 159.83C32.0184 159.677 31.5661 159.524 31.1061 159.378L30.4008 165.496L28.2159 158.489C24.0607 157.293 19.8058 156.281 15.4666 155.453L15.0909 158.765L13.9639 155.177C8.58976 154.196 4.92519 153.812 4.92519 153.812Z" fill="url(#paint0_linear_183_1083)"/>
<path opacity="0.1" d="M34.7324 160.605C36.1967 170.586 39.7999 189.017 54.8108 195.962C59.5333 196.614 61.703 195.909 63.9262 194.046C69.7144 189.185 62.3239 177.011 47.4203 166.853C43.1655 163.947 40.1219 162.414 34.7324 160.605Z" fill="#231F20"/>
<path opacity="0.1" d="M65.3522 191.654L10.882 159.025L61.3656 195.188L65.3522 191.654Z" fill="#231F20"/>
<path d="M64.0412 194.099C63.3896 194.521 62.6842 194.835 61.9406 195.042C61.2046 195.242 60.4533 195.334 59.6867 195.311C51.9129 195.096 42.9048 183.704 38.6653 168.095C38.2129 166.393 37.8909 164.66 37.6916 162.897L46.3394 165.848L37.4156 159.087C36.9326 143.669 43.5335 127.156 43.5335 127.156C43.5335 127.156 46.2167 129.233 49.8506 132.691L48.1487 136.838L50.8626 133.665C53.7682 136.494 56.4668 139.476 58.9507 142.604L55.6235 150.699L60.6373 144.819C64.0029 149.419 66.9391 154.586 68.3804 159.899C72.6123 175.5 70.6114 189.913 64.0412 194.099Z" fill="url(#paint1_linear_183_1083)"/>
<path opacity="0.1" d="M64.0412 194.099C63.3896 194.521 62.6842 194.835 61.9406 195.042C61.2046 195.242 60.4533 195.334 59.6867 195.311L43.7788 131.434L64.0412 194.099Z" fill="#231F20"/>
<path opacity="0.1" d="M64.0412 194.092C63.7652 194.268 63.4816 194.429 63.1902 194.567C60.9056 195.993 57.3791 196.361 53.1319 195.778C51.3532 195.533 49.4443 195.127 47.4433 194.559V130.468C48.1717 131.119 48.9843 131.863 49.8506 132.683L48.1487 136.831L50.8626 133.657C53.7605 136.486 56.4668 139.468 58.9507 142.596L55.6235 150.7L60.6373 144.819C64.0029 149.419 66.9391 154.586 68.3804 159.907C72.6123 175.501 70.619 189.913 64.0412 194.092Z" fill="#231F20"/>
<path d="M221.74 155.583C221.74 155.583 217.125 169.789 206.975 180.407L194.869 181.588L204.33 182.968C203.049 184.125 201.669 185.214 200.19 186.218C191.005 192.482 181.116 196.514 173.526 197.549C168.803 198.201 164.962 197.68 162.739 195.817C156.951 190.956 164.341 178.782 179.245 168.624C183.5 165.718 188.805 163.41 194.195 161.601C194.647 161.448 195.099 161.295 195.559 161.149L196.265 167.267L198.449 160.26C202.605 159.064 206.86 158.052 211.199 157.224L211.574 160.536L212.701 156.948C218.076 155.966 221.74 155.583 221.74 155.583Z" fill="url(#paint2_linear_183_1083)"/>
<path opacity="0.1" d="M191.941 162.375C190.476 172.357 186.873 190.787 171.862 197.733C167.14 198.385 164.97 197.679 162.747 195.817C156.959 190.956 164.349 178.782 179.253 168.624C183.5 165.718 186.543 164.185 191.941 162.375Z" fill="#231F20"/>
<path opacity="0.1" d="M161.313 193.425L215.791 160.796L165.307 196.959L161.313 193.425Z" fill="#231F20"/>
<path d="M162.624 195.862C163.276 196.284 163.981 196.598 164.725 196.805C165.461 197.005 166.212 197.097 166.979 197.074C174.752 196.859 183.761 185.467 188 169.858C188.452 168.156 188.774 166.423 188.974 164.66L180.326 167.612L189.25 160.85C189.733 145.432 183.132 128.919 183.132 128.919C183.132 128.919 180.449 130.997 176.815 134.454L178.517 138.602L175.803 135.428C172.897 138.257 170.199 141.239 167.715 144.367L171.042 152.463L166.028 146.582C162.662 151.182 159.726 156.35 158.285 161.662C154.053 177.264 156.054 191.684 162.624 195.862Z" fill="url(#paint3_linear_183_1083)"/>
<path opacity="0.1" d="M162.624 195.863C163.276 196.284 163.981 196.599 164.725 196.806C165.461 197.005 166.212 197.097 166.979 197.074L182.887 133.197L162.624 195.863Z" fill="#231F20"/>
<path opacity="0.1" d="M162.624 195.862C162.9 196.039 163.184 196.2 163.475 196.338C165.76 197.764 169.286 198.132 173.534 197.549C175.312 197.304 177.221 196.897 179.222 196.33V132.239C178.494 132.89 177.681 133.634 176.815 134.454L178.517 138.602L175.803 135.428C172.905 138.257 170.199 141.239 167.715 144.367L171.042 152.47L166.028 146.59C162.662 151.19 159.726 156.357 158.285 161.678C154.053 177.264 156.054 191.684 162.624 195.862Z" fill="#231F20"/>
<path d="M52.0125 52.6609C50.6633 52.6609 49.5746 51.5723 49.5746 50.223V42.5029C49.5746 41.1536 50.6633 40.0649 52.0125 40.0649V52.6609Z" fill="url(#paint4_linear_183_1083)"/>
<path d="M52.0125 80.9502C50.6633 80.9502 49.5746 79.8615 49.5746 78.5122V59.9211C49.5746 58.5718 50.6633 57.4832 52.0125 57.4832V80.9502Z" fill="url(#paint5_linear_183_1083)"/>
<path d="M175.711 80.9502C177.06 80.9502 178.149 79.8615 178.149 78.5122V59.9211C178.149 58.5718 177.06 57.4832 175.711 57.4832V80.9502Z" fill="url(#paint6_linear_183_1083)"/>
<path d="M151.676 0H75.9396C62.2243 0 51.0926 11.1317 51.0926 24.847V195.495C53.4538 196.76 55.8918 197.948 58.3987 199.059C58.3987 199.059 74.4523 204.411 83.2763 206.327C84.618 206.619 85.9749 206.895 87.3396 207.155C87.3472 207.155 87.3472 207.945 87.3472 207.945C87.8532 208.037 88.3592 207.339 88.8652 207.431C91.6941 207.93 94.569 208.351 97.4823 208.689C109.097 210.038 121.302 210.084 133.729 208.689C136.942 208.328 140.169 207.868 143.412 207.309C144.133 207.194 144.846 207.063 145.566 206.925C154.176 205.331 169.187 200.562 169.187 200.562C171.724 199.458 174.17 198.27 176.531 197.012V24.847C176.523 11.1317 165.399 0 151.676 0Z" fill="url(#paint7_linear_183_1083)"/>
<path d="M164.134 12.7187C164.042 12.6267 163.95 12.5347 163.858 12.4427C160.669 9.25343 156.246 7.30615 151.377 7.30615H140.499C139.349 7.30615 138.421 8.23379 138.421 9.38376V12.4503C138.421 14.6123 136.666 16.3679 134.504 16.3679H93.0817C90.9198 16.3679 89.1642 14.6123 89.1642 12.4503V9.38376C89.1642 8.23379 88.2365 7.30615 87.0866 7.30615H76.2079C66.3871 7.30615 58.4064 15.2946 58.4064 25.1077V199.059C65.5362 202.233 73.2333 204.786 81.3367 206.672C81.9807 206.826 82.6324 206.971 83.284 207.109C84.6333 207.401 85.9826 207.677 87.3472 207.937C87.3549 207.937 87.3626 207.937 87.3626 207.937C87.8685 208.029 88.3745 208.121 88.8805 208.213C91.7094 208.712 94.5844 209.133 97.4899 209.463C109.105 210.812 121.31 210.858 133.737 209.463C136.949 209.103 140.184 208.65 143.42 208.083C144.133 207.968 144.853 207.838 145.566 207.707C154.176 206.113 162.041 203.667 169.187 200.554V25.1077C169.179 20.3085 167.27 15.9232 164.134 12.7187Z" fill="#E4E8ED"/>
<path d="M98.5173 11.906C99.7494 11.906 100.748 10.9071 100.748 9.67503C100.748 8.44292 99.7494 7.44409 98.5173 7.44409C97.2851 7.44409 96.2863 8.44292 96.2863 9.67503C96.2863 10.9071 97.2851 11.906 98.5173 11.906Z" fill="url(#paint8_linear_183_1083)"/>
<path d="M148.656 41.3145L169.179 59.8443V106.648H104.167L78.9985 83.9323L148.656 41.3145Z" fill="url(#paint9_linear_183_1083)"/>
<path d="M129.681 11.8984H107.134C105.908 11.8984 104.903 10.8941 104.903 9.66746C104.903 8.44083 105.908 7.43652 107.134 7.43652H129.681C130.908 7.43652 131.912 8.44083 131.912 9.66746C131.905 10.8941 130.908 11.8984 129.681 11.8984Z" fill="url(#paint10_linear_183_1083)"/>
<path d="M144.271 85.5883H83.307C79.7344 85.5883 76.8059 82.6597 76.8059 79.0872V46.0908C76.8059 42.5182 79.7344 39.5896 83.307 39.5896H144.271C147.843 39.5896 150.772 42.5182 150.772 46.0908V79.0872C150.772 82.6597 147.851 85.5883 144.271 85.5883Z" fill="white"/>
<path d="M145.313 59.7983V64.5361C145.313 64.7968 145.229 65.0345 145.091 65.2338C145.022 65.3258 144.938 65.4101 144.846 65.4868C144.646 65.6401 144.393 65.7321 144.117 65.7321H136.65C135.991 65.7321 135.454 65.1954 135.454 64.5361V59.7983C135.454 59.1389 135.991 58.6023 136.65 58.6023H144.117C144.777 58.6023 145.313 59.1389 145.313 59.7983Z" fill="url(#paint11_linear_183_1083)"/>
<path opacity="0.3" d="M145.313 61.0786V60.8256H141.971V58.6023H141.718V59.4839H138.628C138.283 59.4839 137.999 59.2003 137.999 58.8553V58.6023H137.746V58.8553C137.746 59.2999 138.076 59.6603 138.505 59.7216V60.9712H135.462V61.2242H138.505V62.2899C138.505 62.7345 138.145 63.0948 137.701 63.0948H135.462V63.3478H137.701C138.022 63.3478 138.314 63.1945 138.505 62.9645V63.2942C138.505 64.2295 139.264 64.9885 140.2 64.9885H141.886C142.078 65.2798 142.4 65.4714 142.776 65.4714H144.846C144.938 65.3948 145.022 65.3181 145.091 65.2184H142.776C142.331 65.2184 141.971 64.8581 141.971 64.4135V63.3478H145.313V63.0948H141.971V61.0632H145.313V61.0786ZM140.2 64.7431C139.402 64.7431 138.758 64.0991 138.758 63.3018V59.7369H141.718V64.4288C141.718 64.5361 141.741 64.6511 141.771 64.7508H140.2V64.7431Z" fill="#844317"/>
<path d="M93.0204 59.0087C95.9843 59.0087 98.3869 56.606 98.3869 53.6422C98.3869 50.6783 95.9843 48.2756 93.0204 48.2756C90.0566 48.2756 87.6539 50.6783 87.6539 53.6422C87.6539 56.606 90.0566 59.0087 93.0204 59.0087Z" fill="url(#paint12_linear_183_1083)"/>
<path d="M104.137 73.3373C104.137 78.2285 81.8964 77.9449 81.8964 73.3373C81.8964 67.1965 86.8719 62.221 93.0127 62.221C99.1612 62.2133 104.137 67.1965 104.137 73.3373Z" fill="url(#paint13_linear_183_1083)"/>
<g opacity="0.3">
<path d="M122.437 60.8487H111.489C110.653 60.8487 109.971 60.1663 109.971 59.3307C109.971 58.4951 110.653 57.8127 111.489 57.8127H122.437C123.272 57.8127 123.955 58.4951 123.955 59.3307C123.955 60.1663 123.272 60.8487 122.437 60.8487Z" fill="#628DF8"/>
<path d="M122.437 74.0733H111.489C110.653 74.0733 109.971 73.391 109.971 72.5553C109.971 71.7197 110.653 71.0374 111.489 71.0374H122.437C123.272 71.0374 123.955 71.7197 123.955 72.5553C123.955 73.391 123.272 74.0733 122.437 74.0733Z" fill="#628DF8"/>
<path d="M128.079 67.5337H111.481C110.646 67.5337 109.963 66.8514 109.963 66.0158C109.963 65.1801 110.646 64.4978 111.481 64.4978H128.079C128.915 64.4978 129.597 65.1801 129.597 66.0158C129.605 66.8514 128.922 67.5337 128.079 67.5337Z" fill="#628DF8"/>
<path d="M128.079 54.1404H111.481C110.646 54.1404 109.963 53.4581 109.963 52.6224C109.963 51.7868 110.646 51.1045 111.481 51.1045H128.079C128.915 51.1045 129.597 51.7868 129.597 52.6224C129.605 53.4581 128.922 54.1404 128.079 54.1404Z" fill="#628DF8"/>
</g>
<path d="M90.7741 107.637L103.968 120.049L90.8431 132.362L78.2548 121.007L90.7741 107.637Z" fill="url(#paint14_linear_183_1083)"/>
<path d="M88.1829 121.843H80.6468C78.5231 121.843 76.8059 120.126 76.8059 118.002V110.466C76.8059 108.342 78.5231 106.625 80.6468 106.625H88.1829C90.3065 106.625 92.0238 108.342 92.0238 110.466V118.002C92.0238 120.118 90.3065 121.843 88.1829 121.843Z" fill="white"/>
<path d="M82.916 118.845C82.5634 118.845 82.2184 118.7 81.9654 118.447L78.8605 115.258C78.3545 114.736 78.3622 113.901 78.8835 113.387C79.4048 112.881 80.2404 112.889 80.7541 113.41L82.8854 115.603L88.0372 110.044C88.5355 109.508 89.3712 109.477 89.9078 109.975C90.4445 110.474 90.4751 111.309 89.9768 111.846L83.8743 118.424C83.629 118.692 83.284 118.845 82.9237 118.845C82.9314 118.845 82.9237 118.845 82.916 118.845Z" fill="url(#paint15_linear_183_1083)"/>
<path opacity="0.35" d="M135.109 139.576H105.049C103.224 139.576 101.722 138.081 101.722 136.248C101.722 134.424 103.217 132.921 105.049 132.921H135.109C136.934 132.921 138.436 134.416 138.436 136.248C138.436 138.073 136.942 139.576 135.109 139.576Z" fill="#628DF8"/>
<path opacity="0.35" d="M135.109 183.19H105.049C103.224 183.19 101.722 181.695 101.722 179.863C101.722 178.038 103.217 176.536 105.049 176.536H135.109C136.934 176.536 138.436 178.031 138.436 179.863C138.436 181.695 136.942 183.19 135.109 183.19Z" fill="#628DF8"/>
<path opacity="0.35" d="M147.452 161.532H105.049C103.224 161.532 101.722 160.037 101.722 158.205C101.722 156.381 103.217 154.878 105.049 154.878H147.452C149.277 154.878 150.779 156.373 150.779 158.205C150.772 160.037 149.277 161.532 147.452 161.532Z" fill="#628DF8"/>
<path opacity="0.35" d="M147.452 117.558H105.049C103.224 117.558 101.722 116.063 101.722 114.23C101.722 112.406 103.217 110.903 105.049 110.903H147.452C149.277 110.903 150.779 112.398 150.779 114.23C150.772 116.063 149.277 117.558 147.452 117.558Z" fill="#628DF8"/>
<path d="M90.7741 129.655L103.968 142.067L90.8431 154.379L78.2548 143.025L90.7741 129.655Z" fill="url(#paint16_linear_183_1083)"/>
<path d="M88.1829 143.861H80.6468C78.5231 143.861 76.8059 142.144 76.8059 140.02V132.484C76.8059 130.36 78.5231 128.643 80.6468 128.643H88.1829C90.3065 128.643 92.0238 130.36 92.0238 132.484V140.02C92.0238 142.136 90.3065 143.861 88.1829 143.861Z" fill="white"/>
<path d="M82.916 140.863C82.5634 140.863 82.2184 140.718 81.9654 140.465L78.8605 137.275C78.3545 136.754 78.3622 135.918 78.8835 135.405C79.4048 134.899 80.2404 134.906 80.7541 135.428L82.8854 137.62L88.0372 132.062C88.5355 131.526 89.3712 131.495 89.9078 131.993C90.4445 132.492 90.4751 133.327 89.9768 133.864L83.8743 140.442C83.629 140.71 83.284 140.863 82.9237 140.863C82.9314 140.863 82.9237 140.863 82.916 140.863Z" fill="url(#paint17_linear_183_1083)"/>
<path d="M90.7741 151.62L103.968 164.032L90.8431 176.344L78.2548 164.99L90.7741 151.62Z" fill="url(#paint18_linear_183_1083)"/>
<path d="M88.1829 165.818H80.6468C78.5231 165.818 76.8059 164.1 76.8059 161.977V154.441C76.8059 152.317 78.5231 150.6 80.6468 150.6H88.1829C90.3065 150.6 92.0238 152.317 92.0238 154.441V161.977C92.0238 164.1 90.3065 165.818 88.1829 165.818Z" fill="white"/>
<path d="M82.916 162.82C82.5634 162.82 82.2184 162.675 81.9654 162.422L78.8605 159.232C78.3545 158.711 78.3622 157.875 78.8835 157.362C79.4048 156.856 80.2404 156.863 80.7541 157.385L82.8854 159.577L88.0372 154.019C88.5355 153.483 89.3712 153.452 89.9078 153.95C90.4445 154.449 90.4751 155.284 89.9768 155.821L83.8743 162.399C83.629 162.667 83.284 162.82 82.9237 162.82C82.9314 162.82 82.9237 162.82 82.916 162.82Z" fill="url(#paint19_linear_183_1083)"/>
<path d="M90.7741 173.576L103.968 185.996L90.8431 198.308L78.2548 186.946L90.7741 173.576Z" fill="url(#paint20_linear_183_1083)"/>
<path d="M88.1829 187.782H80.6468C78.5231 187.782 76.8059 186.065 76.8059 183.941V176.405C76.8059 174.281 78.5231 172.564 80.6468 172.564H88.1829C90.3065 172.564 92.0238 174.281 92.0238 176.405V183.941C92.0238 186.065 90.3065 187.782 88.1829 187.782Z" fill="white"/>
<path d="M82.916 184.784C82.5634 184.784 82.2184 184.639 81.9654 184.386L78.8605 181.197C78.3545 180.675 78.3622 179.84 78.8835 179.326C79.4048 178.82 80.2404 178.828 80.7541 179.349L82.8854 181.542L88.0372 175.983C88.5355 175.447 89.3712 175.416 89.9078 175.914C90.4445 176.413 90.4751 177.248 89.9768 177.785L83.8743 184.363C83.629 184.631 83.284 184.784 82.9237 184.784C82.9314 184.784 82.9237 184.784 82.916 184.784Z" fill="url(#paint21_linear_183_1083)"/>
<path d="M100.603 165.764L96.1483 168.562L101.806 177.57L106.268 174.764L100.603 165.764Z" fill="url(#paint22_linear_183_1083)"/>
<path opacity="0.3" d="M100.599 165.763L96.1399 168.566L101.803 177.575L106.262 174.772L100.599 165.763Z" fill="white"/>
<path d="M130.003 214.898L127.673 216.363C126.247 217.26 124.361 216.83 123.464 215.404L100.058 178.168C99.1612 176.742 99.5906 174.856 101.017 173.959L103.347 172.495C104.773 171.598 106.659 172.028 107.556 173.454L130.962 210.689C131.866 212.115 131.437 214.001 130.003 214.898Z" fill="url(#paint23_linear_183_1083)"/>
<path d="M147.376 181.289L129.076 180.453L115.008 184.11L106.276 187.92L121.984 211.755C121.984 211.755 135.186 206.964 137.624 204.986C140.062 203.008 141.311 201.176 147.429 201.498L154.82 195.916L147.376 181.289Z" fill="url(#paint24_linear_183_1083)"/>
<path opacity="0.7" d="M121.977 211.763C121.977 211.763 123.947 211.05 126.515 210.053C128.876 209.141 131.744 207.983 134.021 206.941C135.661 206.197 136.995 205.499 137.616 204.993C140.054 203.015 141.304 201.183 147.422 201.505L156.782 191.715L147.376 181.296L129.076 180.461L115.008 184.118L111.029 185.153L106.276 187.928L121.977 211.763Z" fill="url(#paint25_linear_183_1083)"/>
<path opacity="0.1" d="M126.515 210.045C128.876 209.133 131.744 207.976 134.021 206.933C133.806 205.814 132.986 205.024 132.986 205.024L115.008 184.11L111.029 185.145L126.515 210.045Z" fill="#AD2B2B"/>
<path d="M130.003 214.898L127.673 216.363C126.247 217.26 124.361 216.83 123.464 215.404L100.058 178.168C99.1612 176.742 99.5906 174.856 101.017 173.959L103.347 172.495C104.773 171.598 106.659 172.028 107.556 173.454L130.962 210.689C131.866 212.115 131.437 214.001 130.003 214.898Z" fill="url(#paint26_linear_183_1083)"/>
<path opacity="0.2" d="M112.662 200.363L112.869 200.309C112.869 200.309 114.923 199.381 116.51 197.679C118.097 195.977 119.186 194.996 118.711 193.263C118.243 191.539 116.158 190.994 114.525 191.868C113.145 192.612 110.868 194.751 109.703 196.2L112.662 200.363Z" fill="#231F20"/>
<path opacity="0.2" d="M109.243 195.548C109.879 195.134 110.669 194.552 111.351 193.808C112.869 192.183 113.904 191.24 113.451 189.599C112.999 187.951 111.021 187.43 109.465 188.265C108.537 188.764 107.173 189.929 106.069 191.064L109.243 195.548Z" fill="#231F20"/>
<path opacity="0.2" d="M116.564 204.204C117.001 204.05 117.545 203.859 118.113 203.613C119.301 203.107 120.574 202.425 121.172 201.651C122.452 200.025 123.127 199.113 121.862 197.35C120.604 195.587 117.967 196.798 117.967 196.798C117.967 196.798 114.678 198.707 113.72 199.542C113.444 199.788 113.137 200.018 112.869 200.271L116.457 204.081L116.564 204.204Z" fill="#231F20"/>
<path opacity="0.2" d="M121.057 207.853C122.322 207.293 123.38 206.396 123.234 204.932C122.989 202.517 119.447 202.962 119.447 202.962C119.447 202.962 118.818 203.123 118.028 203.414C117.538 203.606 116.978 203.836 116.457 204.104L116.449 204.211L119.194 208.581L121.057 207.853Z" fill="#231F20"/>
<path d="M111.903 199.65L111.136 199.857C109.013 200.041 107.916 198.929 107.978 197.181C107.985 196.836 108.062 196.514 108.231 196.246C109.066 194.912 111.949 192.083 113.574 191.209C115.199 190.335 117.285 190.879 117.752 192.604C118.22 194.329 117.139 195.318 115.552 197.02C113.957 198.722 111.903 199.65 111.903 199.65Z" fill="url(#paint27_linear_183_1083)"/>
<path d="M107.165 195.817L106.429 196.016C104.405 196.192 103.362 195.127 103.416 193.463C103.424 193.133 103.493 192.827 103.654 192.574C104.451 191.301 107.196 188.602 108.752 187.767C110.308 186.931 112.286 187.452 112.739 189.101C113.191 190.749 112.148 191.692 110.638 193.31C109.12 194.935 107.165 195.817 107.165 195.817Z" fill="url(#paint28_linear_183_1083)"/>
<path d="M117.07 196.353C117.07 196.353 119.707 195.142 120.965 196.905C122.222 198.669 121.555 199.581 120.275 201.206C118.994 202.831 114.701 204.073 114.701 204.073C114.701 204.073 112.355 204.242 111.627 202.686C110.638 200.57 111.872 199.933 112.831 199.098C113.789 198.262 117.07 196.353 117.07 196.353Z" fill="url(#paint29_linear_183_1083)"/>
<path d="M118.642 202.678C118.642 202.678 122.191 202.233 122.437 204.656C122.651 206.803 120.259 207.73 118.465 208.16C116.671 208.589 115.13 208.988 114.555 207.194C114.011 205.499 114.172 204.748 115.123 204.142C116.533 203.23 118.642 202.678 118.642 202.678Z" fill="url(#paint30_linear_183_1083)"/>
<path d="M137.179 180.982C137.179 180.982 124.959 177.264 121.701 176.589C118.442 175.915 107.824 178.537 107.824 178.537L99.9432 182.761C99.5216 182.991 99.3452 183.504 99.5446 183.941C100.143 185.291 101.752 187.752 105.248 186.655C107.541 185.935 109.603 185.153 111.113 184.532C112.8 183.842 114.701 183.949 116.303 184.808L118.841 186.165C118.841 186.165 128.401 196.399 141.327 192.903L137.179 180.982Z" fill="url(#paint31_linear_183_1083)"/>
<path d="M85.4 170.908C98.8685 170.908 109.787 159.99 109.787 146.521C109.787 133.053 98.8685 122.134 85.4 122.134C71.9314 122.134 61.013 133.053 61.013 146.521C61.013 159.99 71.9314 170.908 85.4 170.908Z" fill="#E4E8ED"/>
<path d="M148.334 203.529C148.687 203.774 149.108 203.912 149.56 203.912L163.536 200.463C166.388 200.049 168.113 198.584 168.098 196.085L166.066 179.61C166.051 177.065 163.858 175.079 161.321 175.309L145.934 178.598C144.892 178.72 143.703 179.748 144.209 180.668C146.64 185.061 148.004 193.647 147.422 201.95C147.376 202.594 147.82 203.176 148.334 203.529Z" fill="url(#paint32_linear_183_1083)"/>
<path d="M99.7286 169.314C87.1632 177.21 70.5194 173.415 62.6153 160.85C54.7111 148.284 58.5137 131.641 71.079 123.736C83.6443 115.84 100.288 119.635 108.192 132.2C116.089 144.766 112.294 161.409 99.7286 169.314ZM73.2026 127.117C62.5003 133.841 59.2727 148.024 65.9962 158.726C72.7196 169.429 86.9026 172.656 97.6049 165.933C108.307 159.209 111.543 145.026 104.811 134.324C98.0803 123.621 83.905 120.394 73.2026 127.117Z" fill="url(#paint33_radial_183_1083)"/>
<path d="M73.2026 127.118C62.5003 133.841 59.2727 148.024 65.9962 158.726C72.7196 169.429 86.9026 172.656 97.6049 165.933C108.307 159.209 111.543 145.026 104.811 134.324C98.0803 123.622 83.905 120.394 73.2026 127.118Z" fill="url(#paint34_linear_183_1083)"/>
<path d="M94.8527 135.305L111.021 150.523L102.619 165.626L90.2682 172.702L74.5596 156.978L94.8527 135.305Z" fill="url(#paint35_linear_183_1083)"/>
<path d="M90.6515 158.328H78.4388C74.9966 158.328 72.206 155.537 72.206 152.095V139.882C72.206 136.44 74.9966 133.649 78.4388 133.649H90.6515C94.0937 133.649 96.8843 136.44 96.8843 139.882V152.095C96.8843 155.537 94.0937 158.328 90.6515 158.328Z" fill="white"/>
<path d="M82.1187 153.467C81.5437 153.467 80.9841 153.237 80.5854 152.815L75.5562 147.648C74.7283 146.797 74.7513 145.44 75.5946 144.62C76.4455 143.792 77.8025 143.815 78.6228 144.658L82.0804 148.208L90.4368 139.192C91.2418 138.326 92.5988 138.272 93.4651 139.077C94.3314 139.882 94.385 141.239 93.5801 142.105L83.6903 152.777C83.2917 153.206 82.732 153.459 82.1417 153.459C82.134 153.467 82.1264 153.467 82.1187 153.467Z" fill="url(#paint36_linear_183_1083)"/>
<defs>
<linearGradient id="paint0_linear_183_1083" x1="40.2055" y1="176.152" x2="15.4469" y2="173.06" gradientUnits="userSpaceOnUse">
<stop stop-color="#359F44"/>
<stop offset="1" stop-color="#67CB4D"/>
</linearGradient>
<linearGradient id="paint1_linear_183_1083" x1="57.9203" y1="164.264" x2="39.44" y2="156.382" gradientUnits="userSpaceOnUse">
<stop stop-color="#359F44"/>
<stop offset="1" stop-color="#67CB4D"/>
</linearGradient>
<linearGradient id="paint2_linear_183_1083" x1="186.498" y1="177.944" x2="211.257" y2="174.852" gradientUnits="userSpaceOnUse">
<stop stop-color="#359F44"/>
<stop offset="1" stop-color="#67CB4D"/>
</linearGradient>
<linearGradient id="paint3_linear_183_1083" x1="168.748" y1="166.032" x2="187.228" y2="158.151" gradientUnits="userSpaceOnUse">
<stop stop-color="#359F44"/>
<stop offset="1" stop-color="#67CB4D"/>
</linearGradient>
<linearGradient id="paint4_linear_183_1083" x1="50.7976" y1="98.0741" x2="50.7976" y2="27.5203" gradientUnits="userSpaceOnUse">
<stop stop-color="#1E5CA2"/>
<stop offset="0.3478" stop-color="#3F73B0"/>
<stop offset="1" stop-color="#85A5CD"/>
</linearGradient>
<linearGradient id="paint5_linear_183_1083" x1="50.7976" y1="98.0741" x2="50.7976" y2="27.5204" gradientUnits="userSpaceOnUse">
<stop stop-color="#1E5CA2"/>
<stop offset="0.3478" stop-color="#3F73B0"/>
<stop offset="1" stop-color="#85A5CD"/>
</linearGradient>
<linearGradient id="paint6_linear_183_1083" x1="176.927" y1="98.0741" x2="176.927" y2="27.5204" gradientUnits="userSpaceOnUse">
<stop stop-color="#1E5CA2"/>
<stop offset="0.3478" stop-color="#3F73B0"/>
<stop offset="1" stop-color="#85A5CD"/>
</linearGradient>
<linearGradient id="paint7_linear_183_1083" x1="113.809" y1="208.772" x2="113.809" y2="9.9387" gradientUnits="userSpaceOnUse">
<stop stop-color="#246EC2"/>
<stop offset="1" stop-color="#6DA4E6"/>
</linearGradient>
<linearGradient id="paint8_linear_183_1083" x1="98.5193" y1="212.531" x2="98.5193" y2="14.4358" gradientUnits="userSpaceOnUse">
<stop stop-color="#CBD7F4"/>
<stop offset="0.3206" stop-color="#DEE7F9"/>
<stop offset="0.7083" stop-color="#EFF4FD"/>
<stop offset="1" stop-color="#F5F9FF"/>
</linearGradient>
<linearGradient id="paint9_linear_183_1083" x1="123.494" y1="66.7642" x2="127.231" y2="98.8759" gradientUnits="userSpaceOnUse">
<stop stop-color="#5787F8" stop-opacity="0.3"/>
<stop offset="0.00747508" stop-color="#5787F8" stop-opacity="0.2978"/>
<stop offset="1" stop-color="#79ADF7" stop-opacity="0"/>
</linearGradient>
<linearGradient id="paint10_linear_183_1083" x1="118.405" y1="212.531" x2="118.405" y2="14.4359" gradientUnits="userSpaceOnUse">
<stop stop-color="#CBD7F4"/>
<stop offset="0.3206" stop-color="#DEE7F9"/>
<stop offset="0.7083" stop-color="#EFF4FD"/>
<stop offset="1" stop-color="#F5F9FF"/>
</linearGradient>
<linearGradient id="paint11_linear_183_1083" x1="140.39" y1="66.616" x2="140.39" y2="59.8195" gradientUnits="userSpaceOnUse">
<stop stop-color="#FDA71C"/>
<stop offset="1" stop-color="#FEE74A"/>
</linearGradient>
<linearGradient id="paint12_linear_183_1083" x1="93.0169" y1="75.7757" x2="93.0169" y2="54.0662" gradientUnits="userSpaceOnUse">
<stop stop-color="#6EA2FF"/>
<stop offset="0.3412" stop-color="#80AFFF"/>
<stop offset="1" stop-color="#9EC6FF"/>
</linearGradient>
<linearGradient id="paint13_linear_183_1083" x1="93.0169" y1="75.7757" x2="93.0169" y2="54.0662" gradientUnits="userSpaceOnUse">
<stop stop-color="#6EA2FF"/>
<stop offset="0.3412" stop-color="#80AFFF"/>
<stop offset="1" stop-color="#9EC6FF"/>
</linearGradient>
<linearGradient id="paint14_linear_183_1083" x1="87.8359" y1="116.717" x2="92.8183" y2="122.515" gradientUnits="userSpaceOnUse">
<stop stop-color="#5787F8" stop-opacity="0.3"/>
<stop offset="0.00747508" stop-color="#5787F8" stop-opacity="0.2978"/>
<stop offset="1" stop-color="#79ADF7" stop-opacity="0"/>
</linearGradient>
<linearGradient id="paint15_linear_183_1083" x1="84.417" y1="118.388" x2="84.417" y2="111.2" gradientUnits="userSpaceOnUse">
<stop stop-color="#00B32F"/>
<stop offset="1" stop-color="#89DB55"/>
</linearGradient>
<linearGradient id="paint16_linear_183_1083" x1="87.8359" y1="138.734" x2="92.8183" y2="144.532" gradientUnits="userSpaceOnUse">
<stop stop-color="#5787F8" stop-opacity="0.3"/>
<stop offset="0.00747508" stop-color="#5787F8" stop-opacity="0.2978"/>
<stop offset="1" stop-color="#79ADF7" stop-opacity="0"/>
</linearGradient>
<linearGradient id="paint17_linear_183_1083" x1="84.417" y1="140.405" x2="84.417" y2="133.217" gradientUnits="userSpaceOnUse">
<stop stop-color="#00B32F"/>
<stop offset="1" stop-color="#89DB55"/>
</linearGradient>
<linearGradient id="paint18_linear_183_1083" x1="87.8359" y1="160.697" x2="92.8183" y2="166.494" gradientUnits="userSpaceOnUse">
<stop stop-color="#5787F8" stop-opacity="0.3"/>
<stop offset="0.00747508" stop-color="#5787F8" stop-opacity="0.2978"/>
<stop offset="1" stop-color="#79ADF7" stop-opacity="0"/>
</linearGradient>
<linearGradient id="paint19_linear_183_1083" x1="84.417" y1="162.368" x2="84.417" y2="155.18" gradientUnits="userSpaceOnUse">
<stop stop-color="#00B32F"/>
<stop offset="1" stop-color="#89DB55"/>
</linearGradient>
<linearGradient id="paint20_linear_183_1083" x1="87.8359" y1="182.659" x2="92.8183" y2="188.457" gradientUnits="userSpaceOnUse">
<stop stop-color="#5787F8" stop-opacity="0.3"/>
<stop offset="0.00747508" stop-color="#5787F8" stop-opacity="0.2978"/>
<stop offset="1" stop-color="#79ADF7" stop-opacity="0"/>
</linearGradient>
<linearGradient id="paint21_linear_183_1083" x1="84.417" y1="184.33" x2="84.417" y2="177.142" gradientUnits="userSpaceOnUse">
<stop stop-color="#00B32F"/>
<stop offset="1" stop-color="#89DB55"/>
</linearGradient>
<linearGradient id="paint22_linear_183_1083" x1="99.2429" y1="172.892" x2="103.183" y2="170.415" gradientUnits="userSpaceOnUse">
<stop stop-color="#246EC2"/>
<stop offset="0.1497" stop-color="#3379C9"/>
<stop offset="0.437" stop-color="#5A96DD"/>
<stop offset="0.5587" stop-color="#6DA4E6"/>
<stop offset="0.6891" stop-color="#659EE2"/>
<stop offset="0.8888" stop-color="#508ED8"/>
<stop offset="1" stop-color="#4183D1"/>
</linearGradient>
<linearGradient id="paint23_linear_183_1083" x1="111.758" y1="196.781" x2="119.251" y2="192.071" gradientUnits="userSpaceOnUse">
<stop stop-color="#246EC2"/>
<stop offset="1" stop-color="#6DA4E6"/>
</linearGradient>
<linearGradient id="paint24_linear_183_1083" x1="134.962" y1="205.005" x2="128.042" y2="184.628" gradientUnits="userSpaceOnUse">
<stop stop-color="#FDA86F"/>
<stop offset="0.3541" stop-color="#FDB37A"/>
<stop offset="0.9782" stop-color="#FECF98"/>
<stop offset="1" stop-color="#FED099"/>
</linearGradient>
<linearGradient id="paint25_linear_183_1083" x1="119.458" y1="197.483" x2="140.24" y2="190.538" gradientUnits="userSpaceOnUse">
<stop offset="0.2323" stop-color="#FA3F3F" stop-opacity="0.3"/>
<stop offset="0.5758" stop-color="#FA5C53" stop-opacity="0.1658"/>
<stop offset="1" stop-color="#FB7D69" stop-opacity="0"/>
</linearGradient>
<linearGradient id="paint26_linear_183_1083" x1="111.758" y1="196.781" x2="119.251" y2="192.071" gradientUnits="userSpaceOnUse">
<stop stop-color="#246EC2"/>
<stop offset="0.1497" stop-color="#3379C9"/>
<stop offset="0.437" stop-color="#5A96DD"/>
<stop offset="0.5587" stop-color="#6DA4E6"/>
<stop offset="0.6891" stop-color="#659EE2"/>
<stop offset="0.8888" stop-color="#508ED8"/>
<stop offset="1" stop-color="#4183D1"/>
</linearGradient>
<linearGradient id="paint27_linear_183_1083" x1="121.097" y1="189.854" x2="109.191" y2="197.89" gradientUnits="userSpaceOnUse">
<stop stop-color="#FDA86F"/>
<stop offset="0.3541" stop-color="#FDB37A"/>
<stop offset="0.9782" stop-color="#FECF98"/>
<stop offset="1" stop-color="#FED099"/>
</linearGradient>
<linearGradient id="paint28_linear_183_1083" x1="117.855" y1="185.182" x2="105.949" y2="193.219" gradientUnits="userSpaceOnUse">
<stop stop-color="#FDA86F"/>
<stop offset="0.3541" stop-color="#FDB37A"/>
<stop offset="0.9782" stop-color="#FECF98"/>
<stop offset="1" stop-color="#FED099"/>
</linearGradient>
<linearGradient id="paint29_linear_183_1083" x1="124.112" y1="193.351" x2="113.398" y2="202.963" gradientUnits="userSpaceOnUse">
<stop stop-color="#FDA86F"/>
<stop offset="0.3541" stop-color="#FDB37A"/>
<stop offset="0.9782" stop-color="#FECF98"/>
<stop offset="1" stop-color="#FED099"/>
</linearGradient>
<linearGradient id="paint30_linear_183_1083" x1="126.57" y1="195.74" x2="117.224" y2="206.722" gradientUnits="userSpaceOnUse">
<stop stop-color="#FDA86F"/>
<stop offset="0.3541" stop-color="#FDB37A"/>
<stop offset="0.9782" stop-color="#FECF98"/>
<stop offset="1" stop-color="#FED099"/>
</linearGradient>
<linearGradient id="paint31_linear_183_1083" x1="127.15" y1="208.29" x2="119.942" y2="187.062" gradientUnits="userSpaceOnUse">
<stop stop-color="#FDA86F"/>
<stop offset="0.3541" stop-color="#FDB37A"/>
<stop offset="0.9782" stop-color="#FECF98"/>
<stop offset="1" stop-color="#FED099"/>
</linearGradient>
<linearGradient id="paint32_linear_183_1083" x1="159.061" y1="201.709" x2="153.942" y2="177.394" gradientUnits="userSpaceOnUse">
<stop stop-color="#FA5769"/>
<stop offset="1" stop-color="#FCA785"/>
</linearGradient>
<radialGradient id="paint33_radial_183_1083" cx="0" cy="0" r="1" gradientUnits="userSpaceOnUse" gradientTransform="translate(85.3918 146.523) rotate(-32.1548) scale(26.9147)">
<stop offset="0.8045" stop-color="#246EC2"/>
<stop offset="0.8483" stop-color="#4B8BD5"/>
<stop offset="0.8835" stop-color="#649DE2"/>
<stop offset="0.905" stop-color="#6DA4E6"/>
<stop offset="0.9255" stop-color="#68A0E4"/>
<stop offset="0.9493" stop-color="#5A96DD"/>
<stop offset="0.9746" stop-color="#4385D1"/>
<stop offset="1" stop-color="#246EC2"/>
</radialGradient>
<linearGradient id="paint34_linear_183_1083" x1="75.5625" y1="159.628" x2="97.3127" y2="130.63" gradientUnits="userSpaceOnUse">
<stop stop-color="white" stop-opacity="0.5"/>
<stop offset="1" stop-color="white" stop-opacity="0.2"/>
</linearGradient>
<linearGradient id="paint35_linear_183_1083" x1="89.3859" y1="149.784" x2="96.8227" y2="158.437" gradientUnits="userSpaceOnUse">
<stop stop-color="#5787F8" stop-opacity="0.3"/>
<stop offset="0.00747508" stop-color="#5787F8" stop-opacity="0.2978"/>
<stop offset="1" stop-color="#79ADF7" stop-opacity="0"/>
</linearGradient>
<linearGradient id="paint36_linear_183_1083" x1="84.5471" y1="152.73" x2="84.5471" y2="141.078" gradientUnits="userSpaceOnUse">
<stop stop-color="#00B32F"/>
<stop offset="1" stop-color="#89DB55"/>
</linearGradient>
</defs>
</svg>
