<svg width="346" height="267" viewBox="0 0 346 267" fill="none" xmlns="http://www.w3.org/2000/svg">
<path opacity="0.6" d="M317.856 115.403C317.856 188.532 267.389 200.88 267.389 200.88L78.4257 203.291C1.85403 155.342 46.87 69.4199 99.3763 83.9194C141.426 95.5265 154.219 52.5469 163.081 34.6357C168.161 24.3636 176.096 17.3549 185.774 13.2386C202.424 6.15569 224.227 7.71319 245.252 16.094C247.996 17.2065 250.777 18.3932 253.484 19.7282C287.709 36.4157 317.856 71.0144 317.856 115.403Z" fill="#DEEAFF"/>
<path d="M188.518 247.013C143.28 247.495 107.794 247.31 85.4339 245.233C68.1914 243.638 58.7358 240.894 58.7358 236.481C58.7358 234.998 59.7741 233.329 61.9619 231.475C64.1125 229.621 65.4104 228.063 66.0407 226.691C67.4498 223.687 65.5958 221.722 62.2214 220.202C55.0278 216.938 41.0113 215.64 37.5998 210.115C22.7675 186.122 265.349 183.118 308.104 206.74C345.963 227.655 266.944 246.16 188.518 247.013Z" fill="url(#paint0_linear_2019_12621)"/>
<path d="M234.684 224.614L58.7358 236.481C58.7358 234.998 59.7741 233.329 61.9618 231.475C64.1125 229.621 65.4104 228.063 66.0407 226.691C67.4498 223.687 65.5958 221.722 62.2214 220.202L194.748 215.121L234.684 224.614Z" fill="url(#paint1_linear_2019_12621)"/>
<path d="M234.684 224.615L242.248 220.276C242.248 220.276 244.621 206.629 245.363 198.619L237.687 200.473C237.687 200.436 233.979 219.46 234.684 224.615Z" fill="url(#paint2_linear_2019_12621)"/>
<path d="M252.594 98.5689C251.889 114.144 250.888 129.941 249.887 144.181C247.699 174.849 245.4 198.583 245.4 198.583L237.724 200.437L236.834 148.001L235.944 97.0114L234.98 43.7598H253.484C253.966 59.4831 253.484 78.8777 252.594 98.5689Z" fill="url(#paint3_linear_2019_12621)"/>
<path d="M245.252 16.0578V56.1449H185.774V13.2395C202.424 6.11951 224.19 7.67701 245.252 16.0578Z" fill="url(#paint4_linear_2019_12621)"/>
<path d="M253.484 19.7298V56.1828H245.252V16.0586C247.996 17.1711 250.777 18.3948 253.484 19.7298Z" fill="url(#paint5_linear_2019_12621)"/>
<path d="M237.687 200.436C236.797 209.373 235.796 217.568 234.684 224.614H196.305C194.97 217.642 193.821 209.41 192.82 200.436H237.687Z" fill="url(#paint6_linear_2019_12621)"/>
<path d="M245.252 56.1816C245.252 56.1816 244.881 73.1287 243.991 97.0104C243.472 111.065 242.767 127.53 241.803 144.329C240.728 163.612 239.356 183.34 237.65 200.436H192.857C192.152 194.317 191.559 187.827 191.003 181.152C188.667 153.155 187.332 121.485 186.627 97.0475C185.923 73.2029 185.774 56.2187 185.774 56.2187H245.252V56.1816Z" fill="url(#paint7_linear_2019_12621)"/>
<path d="M252.594 98.5692C251.889 114.144 250.888 129.942 249.887 144.182L241.84 144.33L236.797 148.001L190.966 181.117C188.63 153.119 187.295 121.45 186.59 97.0117H243.991L252.594 98.5692Z" fill="url(#paint8_linear_2019_12621)"/>
<path d="M243.991 97.0117C243.843 101.35 243.657 105.912 243.435 110.621H187.035C186.887 105.912 186.738 101.35 186.59 97.0117H243.991Z" fill="url(#paint9_linear_2019_12621)"/>
<path d="M294.68 27.4053V102.61C294.68 105.354 292.604 107.023 289.563 107.023H147.544C145.653 107.023 144.096 105.429 144.096 103.463V26.7749C144.096 24.8095 145.653 23.2149 147.544 23.2149L289.749 22.7699C293.457 22.7328 294.68 25.4399 294.68 27.4053Z" fill="url(#paint10_linear_2019_12621)"/>
<path d="M292.567 26.256V101.424C292.567 103.352 291.046 104.91 289.155 104.91H147.507C145.616 104.91 144.096 103.352 144.096 101.424V26.256C144.096 24.3277 145.616 22.7702 147.507 22.7702H289.155C291.046 22.7331 292.567 24.2906 292.567 26.256Z" fill="url(#paint11_linear_2019_12621)"/>
<path d="M287.857 29.4807V97.8253C287.857 99.1603 286.745 100.236 285.373 100.236H151.289C149.917 100.236 148.805 99.1603 148.805 97.8253V29.4807C148.805 28.1457 149.917 27.0703 151.289 27.0703H285.373C286.745 27.0703 287.857 28.1457 287.857 29.4807Z" fill="url(#paint12_linear_2019_12621)"/>
<path opacity="0.5" d="M199.049 61.9661H157.037C155.961 61.9661 155.109 61.1131 155.109 60.0377V35.0436C155.109 33.9681 155.961 33.1152 157.037 33.1152H199.049C200.125 33.1152 200.977 33.9681 200.977 35.0436V60.0748C200.977 61.1131 200.125 61.9661 199.049 61.9661Z" fill="#347FD9"/>
<path opacity="0.5" d="M230.457 42.8681H209.321C208.319 42.8681 207.504 42.0523 207.504 41.0511V34.9323C207.504 33.9311 208.319 33.1152 209.321 33.1152H230.457V42.8681Z" fill="#347FD9"/>
<path opacity="0.5" d="M224.227 51.7685H213.733C212.584 51.7685 211.62 50.8043 211.62 49.6548C211.62 48.5052 212.584 47.541 213.733 47.541H224.227C225.377 47.541 226.341 48.5052 226.341 49.6548C226.341 50.8414 225.414 51.7685 224.227 51.7685Z" fill="#347FD9"/>
<path opacity="0.5" d="M224.227 62.5224H213.733C212.584 62.5224 211.62 61.5583 211.62 60.4087C211.62 59.2591 212.584 58.2949 213.733 58.2949H224.227C225.377 58.2949 226.341 59.2591 226.341 60.4087C226.341 61.5583 225.414 62.5224 224.227 62.5224Z" fill="#347FD9"/>
<path opacity="0.5" d="M250.146 51.7685H239.653C238.503 51.7685 237.539 50.8043 237.539 49.6548C237.539 48.5052 238.503 47.541 239.653 47.541H250.146C251.296 47.541 252.26 48.5052 252.26 49.6548C252.26 50.8414 251.333 51.7685 250.146 51.7685Z" fill="#347FD9"/>
<path opacity="0.5" d="M250.146 62.5224H239.653C238.503 62.5224 237.539 61.5583 237.539 60.4087C237.539 59.2591 238.503 58.2949 239.653 58.2949H250.146C251.296 58.2949 252.26 59.2591 252.26 60.4087C252.26 61.5583 251.333 62.5224 250.146 62.5224Z" fill="#347FD9"/>
<path opacity="0.5" d="M276.066 51.7685H265.572C264.422 51.7685 263.458 50.8043 263.458 49.6548C263.458 48.5052 264.422 47.541 265.572 47.541H276.066C277.215 47.541 278.179 48.5052 278.179 49.6548C278.179 50.8414 277.252 51.7685 276.066 51.7685Z" fill="#347FD9"/>
<path opacity="0.5" d="M276.066 62.5224H265.572C264.422 62.5224 263.458 61.5583 263.458 60.4087C263.458 59.2591 264.422 58.2949 265.572 58.2949H276.066C277.215 58.2949 278.179 59.2591 278.179 60.4087C278.179 61.5583 277.252 62.5224 276.066 62.5224Z" fill="#347FD9"/>
<path opacity="0.5" d="M224.227 73.2392H213.733C212.584 73.2392 211.62 72.2751 211.62 71.1255C211.62 69.9759 212.584 69.0117 213.733 69.0117H224.227C225.377 69.0117 226.341 69.9759 226.341 71.1255C226.341 72.3121 225.414 73.2392 224.227 73.2392Z" fill="#347FD9"/>
<path opacity="0.5" d="M224.227 83.9931H213.733C212.584 83.9931 211.62 83.029 211.62 81.8794C211.62 80.7298 212.584 79.7656 213.733 79.7656H224.227C225.377 79.7656 226.341 80.7298 226.341 81.8794C226.341 83.029 225.414 83.9931 224.227 83.9931Z" fill="#347FD9"/>
<path opacity="0.5" d="M250.146 73.2392H239.653C238.503 73.2392 237.539 72.2751 237.539 71.1255C237.539 69.9759 238.503 69.0117 239.653 69.0117H250.146C251.296 69.0117 252.26 69.9759 252.26 71.1255C252.26 72.3121 251.333 73.2392 250.146 73.2392Z" fill="#347FD9"/>
<path opacity="0.5" d="M250.146 83.9931H239.653C238.503 83.9931 237.539 83.029 237.539 81.8794C237.539 80.7298 238.503 79.7656 239.653 79.7656H250.146C251.296 79.7656 252.26 80.7298 252.26 81.8794C252.26 83.029 251.333 83.9931 250.146 83.9931Z" fill="#347FD9"/>
<path opacity="0.5" d="M276.066 73.2392H265.572C264.422 73.2392 263.458 72.2751 263.458 71.1255C263.458 69.9759 264.422 69.0117 265.572 69.0117H276.066C277.215 69.0117 278.179 69.9759 278.179 71.1255C278.179 72.3121 277.252 73.2392 276.066 73.2392Z" fill="#347FD9"/>
<path opacity="0.5" d="M276.066 83.9931H265.572C264.422 83.9931 263.458 83.029 263.458 81.8794C263.458 80.7298 264.422 79.7656 265.572 79.7656H276.066C277.215 79.7656 278.179 80.7298 278.179 81.8794C278.179 83.029 277.252 83.9931 276.066 83.9931Z" fill="#347FD9"/>
<path opacity="0.5" d="M224.227 94.7119H213.733C212.584 94.7119 211.62 93.7477 211.62 92.5981C211.62 91.4485 212.584 90.4844 213.733 90.4844H224.227C225.377 90.4844 226.341 91.4485 226.341 92.5981C226.341 93.7848 225.414 94.7119 224.227 94.7119Z" fill="#347FD9"/>
<path opacity="0.5" d="M250.146 94.7119H239.653C238.503 94.7119 237.539 93.7477 237.539 92.5981C237.539 91.4485 238.503 90.4844 239.653 90.4844H250.146C251.296 90.4844 252.26 91.4485 252.26 92.5981C252.26 93.7848 251.333 94.7119 250.146 94.7119Z" fill="#347FD9"/>
<path opacity="0.5" d="M276.066 94.7119H265.572C264.422 94.7119 263.458 93.7477 263.458 92.5981C263.458 91.4485 264.422 90.4844 265.572 90.4844H276.066C277.215 90.4844 278.179 91.4485 278.179 92.5981C278.179 93.7848 277.252 94.7119 276.066 94.7119Z" fill="#347FD9"/>
<path opacity="0.5" d="M256.339 33.1152H233.423V42.8681H256.339V33.1152Z" fill="#347FD9"/>
<path opacity="0.5" d="M280.478 42.8681H259.342V33.1152H280.478C281.48 33.1152 282.295 33.9311 282.295 34.9323V41.0882C282.295 42.0894 281.48 42.8681 280.478 42.8681Z" fill="#347FD9"/>
<path opacity="0.5" d="M198.864 71.6084H164.268C163.118 71.6084 162.154 70.6442 162.154 69.4946C162.154 68.345 163.118 67.3809 164.268 67.3809H198.864C200.013 67.3809 200.977 68.345 200.977 69.4946C200.977 70.6442 200.05 71.6084 198.864 71.6084Z" fill="#347FD9"/>
<path opacity="0.5" d="M157.259 71.6084C158.427 71.6084 159.373 70.662 159.373 69.4946C159.373 68.3272 158.427 67.3809 157.259 67.3809C156.092 67.3809 155.146 68.3272 155.146 69.4946C155.146 70.662 156.092 71.6084 157.259 71.6084Z" fill="#347FD9"/>
<path opacity="0.5" d="M198.864 83.1787H164.268C163.118 83.1787 162.154 82.2145 162.154 81.0649C162.154 79.9153 163.118 78.9512 164.268 78.9512H198.864C200.013 78.9512 200.977 79.9153 200.977 81.0649C200.977 82.2145 200.05 83.1787 198.864 83.1787Z" fill="#347FD9"/>
<path opacity="0.5" d="M157.259 83.1787C158.427 83.1787 159.373 82.2323 159.373 81.0649C159.373 79.8975 158.427 78.9512 157.259 78.9512C156.092 78.9512 155.146 79.8975 155.146 81.0649C155.146 82.2323 156.092 83.1787 157.259 83.1787Z" fill="#347FD9"/>
<path opacity="0.5" d="M198.864 94.7119H164.268C163.118 94.7119 162.154 93.7477 162.154 92.5981C162.154 91.4485 163.118 90.4844 164.268 90.4844H198.864C200.013 90.4844 200.977 91.4485 200.977 92.5981C200.977 93.7848 200.05 94.7119 198.864 94.7119Z" fill="#347FD9"/>
<path opacity="0.5" d="M157.259 94.7119C158.427 94.7119 159.373 93.7655 159.373 92.5981C159.373 91.4307 158.427 90.4844 157.259 90.4844C156.092 90.4844 155.146 91.4307 155.146 92.5981C155.146 93.7655 156.092 94.7119 157.259 94.7119Z" fill="#347FD9"/>
<path d="M166.381 58.4429V59.1846C166.381 59.37 166.529 59.5183 166.715 59.5183H189.408C189.594 59.5183 189.742 59.37 189.742 59.1846V58.4429C189.742 58.2946 189.668 58.1833 189.557 58.1091L184.069 53.5479C185.663 52.8062 186.775 51.2116 186.775 49.3204V40.1608C186.775 37.6021 184.699 35.5254 182.14 35.5254H173.908C171.35 35.5254 169.273 37.6021 169.273 40.1608V49.3204C169.273 51.2116 170.386 52.8062 171.98 53.5479L166.492 58.1091C166.418 58.1833 166.381 58.3316 166.381 58.4429ZM173.612 54.1783H182.511L184.069 55.5133H172.054L173.612 54.1783ZM182.511 50.8408C181.844 50.8408 181.288 50.2846 181.288 49.6171C181.288 48.9496 181.844 48.3933 182.511 48.3933C183.179 48.3933 183.735 48.9496 183.735 49.6171C183.698 50.2846 183.179 50.8408 182.511 50.8408ZM173.612 50.8408C172.944 50.8408 172.388 50.2846 172.388 49.6171C172.388 48.9496 172.944 48.3933 173.612 48.3933C174.279 48.3933 174.835 48.9496 174.835 49.6171C174.835 50.2846 174.279 50.8408 173.612 50.8408ZM181.139 37.6021C181.139 37.9729 180.843 38.3066 180.435 38.3066H175.688C175.318 38.3066 174.984 38.01 174.984 37.6021C174.984 37.2312 175.28 36.8975 175.688 36.8975H180.435C180.805 36.9346 181.139 37.2312 181.139 37.6021ZM182.771 45.9829H173.315C172.092 45.9829 171.09 44.9816 171.09 43.7579V42.015C171.09 40.7912 172.092 39.79 173.315 39.79H182.771C183.994 39.79 184.996 40.7912 184.996 42.015V43.7579C185.033 44.9816 184.032 45.9829 182.771 45.9829ZM169.199 58.2946L170.757 56.9596H185.404L186.961 58.2946H169.199Z" fill="white"/>
<g opacity="0.45">
<path d="M245.363 22.7324L163.155 104.909H147.507C145.616 104.909 144.096 103.352 144.096 101.423V26.2553C144.096 24.327 145.616 22.7695 147.507 22.7695H245.363V22.7324Z" fill="url(#paint13_linear_2019_12621)"/>
</g>
<path d="M36.0795 253.465L72.2703 252.316C74.3468 252.316 74.6435 250.758 72.9007 250.128L51.7276 242.822L19.4303 243.527L36.0795 253.465Z" fill="url(#paint14_linear_2019_12621)"/>
<path d="M67.4869 250.017L134.158 244.417C134.603 244.455 137.162 244.195 137.162 243.713C137.162 243.194 134.974 243.194 134.121 243.194L110.167 238.15L67.1902 240.895L67.4869 250.017Z" fill="url(#paint15_linear_2019_12621)"/>
<path d="M130.227 128.347C130.227 128.347 134.084 127.457 135.641 126.456C137.236 125.417 140.573 122.117 141.092 120.93C141.685 119.595 143.465 117.148 142.427 116.851C141.389 116.554 136.494 119.818 136.494 119.818C136.494 119.818 136.086 119.076 135.048 119.187C134.01 119.299 131.822 119.558 131.377 119.892C130.19 120.819 127.632 125.492 127.632 125.492C127.632 125.492 122.44 128.977 121.291 129.682C120.846 129.942 120.661 136.913 122.218 135.986C123.293 135.356 129.708 128.495 130.227 128.347Z" fill="url(#paint16_linear_2019_12621)"/>
<path opacity="0.15" d="M134.64 121.598C134.788 121.412 134.937 121.19 135.048 120.893C135.048 120.893 134.121 121.19 133.602 121.19C133.083 121.19 133.602 122.08 132.823 122.747C132.823 122.747 132.897 122.747 132.971 122.71C132.749 123.118 132.193 123.934 131.08 124.601C129.745 125.417 131.748 125.751 133.083 124.972C134.38 124.193 137.31 122.191 137.866 121.523C138.422 120.856 139.349 119.855 139.98 119.076C140.35 118.557 136.791 120.411 134.64 121.598Z" fill="#D0001D"/>
<path d="M133.268 124.49L144.986 115.145C145.208 114.959 145.245 114.588 145.06 114.329L144.689 113.884C144.503 113.661 144.207 113.624 143.984 113.773L132.304 123.081C132.081 123.266 132.044 123.6 132.193 123.822L132.489 124.304C132.712 124.601 133.046 124.675 133.268 124.49Z" fill="url(#paint17_linear_2019_12621)"/>
<path d="M122.329 234.145C122.329 234.145 126.668 236.963 128.336 237.63C129.931 238.298 132.267 239.707 133.528 239.707C134.788 239.707 136.939 240.041 137.124 240.82C137.31 241.561 137.124 242.414 137.124 242.414C137.124 242.414 134.788 244.565 129.782 244.417C124.739 244.231 125.036 243.935 122.811 243.935C120.586 243.897 118.621 244.157 114.171 244.454C111.02 244.639 110.167 243.935 110.167 243.935C110.167 243.935 109.981 236.926 111.353 235.554C112.688 234.182 122.329 234.145 122.329 234.145Z" fill="url(#paint18_linear_2019_12621)"/>
<path opacity="0.1" d="M123.479 234.849C122.811 234.441 122.366 234.145 122.366 234.145C122.366 234.145 112.725 234.219 111.353 235.591C110.871 236.073 110.612 237.185 110.426 238.483C111.687 239.596 114.023 238.52 115.543 237.853C117.101 237.185 116.137 237.185 119.882 236.74C122.663 236.407 123.33 235.368 123.479 234.849Z" fill="black"/>
<path d="M112.132 207.297C112.132 207.297 112.799 214.454 112.132 217.903C111.465 221.351 110.871 223.02 111.613 224.8C112.355 226.58 112.28 226.543 111.835 228.026C111.353 229.547 110.167 230.808 111.242 232.106C112.355 233.366 111.02 234.034 110.797 234.924C110.575 235.814 109.351 236.481 112.392 237.112C115.432 237.779 115.173 236.222 117.36 236.222C119.548 236.222 123.367 235.851 123.479 234.553C123.59 233.255 121.439 232.773 121.81 231.846C122.181 230.956 122.552 231.178 122.552 229.547C122.552 227.878 121.884 227.878 122.774 226.728C123.664 225.579 122.923 219.423 123.442 218.273C123.961 217.124 126.26 205.739 125.592 197.803C125.073 189.868 112.132 207.297 112.132 207.297Z" fill="url(#paint19_linear_2019_12621)"/>
<path opacity="0.1" d="M125.815 201.512H119.363L114.691 204.07C113.17 205.888 112.169 207.297 112.169 207.297C112.169 207.297 112.837 214.454 112.169 217.903C111.502 221.351 110.908 223.02 111.65 224.8C112.392 226.58 112.317 226.543 111.872 228.026C111.428 229.51 110.204 230.808 111.279 232.105C110.018 229.435 114.431 227.433 113.801 226.395C113.17 225.319 113.912 223.168 113.801 219.831C113.689 216.493 116.99 213.638 119.882 213.378C122.107 213.156 124.48 209.077 125.444 207.111C125.666 205.22 125.815 203.366 125.815 201.512Z" fill="black"/>
<path opacity="0.1" d="M123.627 242.636C121.551 242.191 119.066 242.858 115.581 243.007C113.467 243.118 111.39 242.784 110.093 242.562C110.093 243.415 110.093 243.971 110.093 243.971C110.093 243.971 110.945 244.638 114.097 244.49C118.51 244.23 120.512 243.971 122.737 243.971C124.962 244.008 124.702 244.268 129.708 244.453C134.751 244.638 137.05 242.45 137.05 242.45C137.05 242.45 137.124 242.005 137.124 241.486C133.565 243.34 125.592 243.081 123.627 242.636Z" fill="black"/>
<path opacity="0.15" d="M137.162 241.488C137.162 241.265 137.124 241.043 137.087 240.82C136.902 240.078 134.788 239.708 133.491 239.708C132.23 239.708 129.894 238.298 128.299 237.631C127.187 237.149 124.851 235.703 123.442 234.813C123.479 234.701 123.516 234.627 123.553 234.553C123.701 233.292 121.513 232.773 121.884 231.846C122.255 230.956 122.626 231.178 122.626 229.547C122.626 227.878 121.958 227.878 122.848 226.728C123.738 225.579 122.997 219.423 123.516 218.273C124.035 217.124 126.334 205.739 125.666 197.803C124.999 189.868 112.095 207.297 112.095 207.297C112.095 207.297 112.762 214.454 112.095 217.903C111.427 221.351 110.834 223.02 111.576 224.8C112.317 226.58 112.243 226.543 111.798 228.026C111.353 229.51 110.13 230.808 111.205 232.106C112.317 233.366 110.983 234.034 110.76 234.924C110.575 235.591 109.907 236.073 110.723 236.556C110.204 238.113 110.056 240.857 110.056 242.526C110.056 242.748 110.056 242.897 110.056 243.082V243.119C110.056 243.193 110.056 243.268 110.056 243.342V243.379C110.056 243.453 110.056 243.49 110.056 243.564V243.601C110.056 243.638 110.056 243.676 110.056 243.713V243.75C110.056 243.787 110.056 243.824 110.056 243.861V243.898C110.056 243.935 110.056 243.935 110.056 243.935C110.056 243.972 110.056 243.972 110.056 243.972C110.056 243.972 110.723 244.491 112.985 244.528C113.319 244.528 113.652 244.528 114.097 244.491C118.25 244.269 120.253 244.009 122.329 243.972C122.478 243.972 122.589 243.972 122.737 243.972C122.811 243.972 122.885 243.972 122.96 243.972C124.332 244.009 124.702 244.158 126.334 244.269C126.408 244.269 126.519 244.269 126.556 244.306C126.742 244.306 126.89 244.343 127.076 244.343C127.743 244.38 128.633 244.454 129.708 244.491H129.745C134.751 244.677 137.05 242.489 137.05 242.489C137.05 242.489 137.199 242.044 137.162 241.488Z" fill="black"/>
<path d="M90.3657 226.098C90.3657 226.098 90.2173 230.955 89.4757 232.105C88.7341 233.255 88.0667 234.812 88.7341 235.554C89.4016 236.295 91.6264 241.858 90.4027 243.119C89.6611 243.86 89.1791 243.935 89.1791 243.935C89.1791 243.935 83.5799 238.113 82.5416 236.184C81.5034 234.256 81.0955 230.881 80.0202 228.434C78.9077 225.986 76.4233 221.944 77.6099 220.72C78.7965 219.534 84.6923 217.568 84.6923 217.568C84.6923 217.568 91.0331 223.242 90.3657 226.098Z" fill="url(#paint20_linear_2019_12621)"/>
<path d="M103.678 163.131C103.678 163.131 106.31 172.661 107.423 174.071C108.535 175.517 110.315 183.453 111.428 185.789C112.577 188.088 113.356 193.984 113.615 195.876C113.615 195.876 108.127 198.323 104.938 201.253C101.749 204.182 98.3009 205.48 97.5222 207.001C96.7806 208.558 96.6323 209.559 95.4828 210.19C94.3333 210.857 91.5152 214.899 89.587 215.048C87.6588 215.196 86.1385 215.196 86.1385 215.938C86.1385 216.679 83.8395 216.086 84.3586 218.385C84.8777 220.684 87.288 221.315 87.9554 224.504C88.6229 227.693 89.5128 227.841 90.2544 227.953C90.996 228.101 90.9219 227.804 91.4039 227.285C91.9231 226.766 92.1455 228.324 92.9613 226.914C93.74 225.505 92.4422 225.134 93.8513 224.726C95.2603 224.356 97.5593 222.279 100.489 219.609C103.418 216.902 110.093 213.342 113.801 212.044C117.546 210.783 124.443 206.519 125.963 204.368C127.521 202.18 127.78 184.936 127.817 181.45C127.891 178.001 126.482 163.02 126.074 161.722C125.704 160.572 104.864 160.572 103.678 163.131Z" fill="url(#paint21_linear_2019_12621)"/>
<path opacity="0.15" d="M126.111 161.832C125.741 160.571 104.864 160.571 103.715 163.093C103.715 163.093 106.347 172.623 107.46 174.033C108.572 175.479 110.352 183.415 111.465 185.751C112.614 188.05 113.393 193.946 113.652 195.838C113.652 195.838 108.164 198.285 104.975 201.215C104.938 201.252 104.901 201.289 104.864 201.326C109.536 198.47 114.802 196.06 114.505 195.689C114.134 195.17 116.174 195.17 116.582 194.503C116.99 193.835 116.026 189.2 115.136 187.049C114.246 184.935 114.987 183.044 114.616 181.746C113.912 179.335 113.875 178.965 116.582 175.33C119.289 171.696 118.695 169.583 117.842 168.025C117.027 166.468 115.247 164.836 120.364 165.095C125.481 165.318 126.445 164.428 126.445 164.428C126.297 163.093 126.186 162.129 126.111 161.832Z" fill="black"/>
<path opacity="0.1" d="M89.142 243.972C89.142 243.972 89.4757 243.935 89.9949 243.49C89.4016 242.748 88.2521 241.227 86.7318 239.41C84.6182 236.852 83.0608 234.738 82.9124 232.772C82.7641 230.807 80.9472 225.875 79.6493 223.798C78.9819 222.686 78.5369 221.314 78.3144 220.238C78.0178 220.424 77.7582 220.609 77.6099 220.757C76.3862 221.981 78.9077 226.023 80.0202 228.471C81.1326 230.918 81.5405 234.293 82.5416 236.221C83.5057 238.15 89.142 243.972 89.142 243.972Z" fill="black"/>
<path d="M112.503 98.4199L112.688 98.5683L112.095 99.2728C112.095 99.2728 112.132 98.8649 112.503 98.4199Z" fill="url(#paint22_linear_2019_12621)"/>
<path d="M133.528 90.3726C133.528 90.3726 133.713 92.3751 132.971 94.7113C132.489 96.2688 131.822 96.3801 131.711 96.8992C131.599 97.4184 131.451 101.201 130.376 100.793C129.337 100.422 129.004 100.496 128.707 101.053C128.41 101.572 126.519 105.725 125.11 105.354C123.701 104.946 123.405 103.797 122.107 104.316C119.882 105.28 116.693 107.542 116.693 107.542L110.871 99.903C110.871 99.903 112.132 98.9759 114.097 96.0834C116.026 93.1909 120.512 84.8101 120.512 84.8101L128.485 84.1426L134.01 87.1834L133.528 90.3726Z" fill="url(#paint23_linear_2019_12621)"/>
<path opacity="0.3" d="M122.107 104.353C122.663 104.13 122.96 104.242 123.182 104.279C122.07 103.426 119.177 100.014 118.176 98.0117L114.06 101.868L116.693 107.542C116.693 107.616 119.882 105.317 122.107 104.353Z" fill="url(#paint24_linear_2019_12621)"/>
<path d="M133.528 90.3727C133.528 90.3727 132.489 90.8177 131.599 89.631C130.672 88.4444 129.486 88.5185 129.115 88.6669C128.744 88.8152 128.967 89.4085 128.225 90.2985C127.483 91.1514 125.852 93.5248 124.072 93.191C122.292 92.8573 124.48 90.3727 122.589 89.7794C121.736 89.4827 120.994 90.1502 120.586 91.5223C119.882 93.8214 118.695 94.8969 117.62 95.0823C116.545 95.2677 114.802 96.4544 114.06 96.0464C113.319 95.6385 115.655 93.1539 115.173 90.4098C114.654 87.7027 115.284 86.1823 116.137 83.9202C116.99 81.6952 118.436 81.5098 119.659 81.4727C120.846 81.4356 120.883 78.9139 123.998 79.9894C127.113 81.0648 129.337 82.7335 131.229 82.9931C133.12 83.2527 135.419 83.6606 135.678 84.6619C135.938 85.6631 137.05 86.4048 137.162 87.4431C137.273 88.4814 136.383 88.8523 135.382 89.2602C134.269 89.7052 135.345 90.966 133.528 90.3727Z" fill="url(#paint25_linear_2019_12621)"/>
<path d="M109.648 101.61C109.648 101.61 103.9 106.653 101.861 111.103C100.266 114.552 99.7471 116.74 100.081 122.302C100.415 127.865 99.3763 132.129 99.9696 135.726C100.6 139.323 101.082 146.258 100.934 148.001C100.785 149.744 101.193 162.204 101.861 163.724C102.269 164.651 106.496 164.874 108.721 163.724C111.576 162.278 125.667 164.837 127.224 163.687C127.224 163.687 127.558 162.723 127.224 157.791C126.89 152.822 125.592 120.04 124.739 116.925C124.22 115.034 121.884 111.029 121.884 111.029C121.884 111.029 114.283 99.9037 109.648 101.61Z" fill="url(#paint26_linear_2019_12621)"/>
<path opacity="0.15" d="M121.773 111.028C121.81 111.028 121.884 111.028 121.921 111.065C121.884 111.028 121.884 111.028 121.884 111.028C121.884 111.028 114.32 99.9398 109.648 101.609C109.648 101.609 103.9 106.652 101.861 111.102C100.266 114.551 99.7471 116.739 100.081 122.301C100.415 127.864 99.3763 132.128 99.9696 135.725C100.563 139.322 101.082 146.257 100.934 148C100.748 149.706 101.193 162.203 101.861 163.723C102.269 164.65 106.496 164.873 108.721 163.723C110.463 162.833 116.396 163.464 121.068 163.797C120.809 162.499 120.624 160.757 120.772 158.494C121.143 151.857 127.113 154.156 123.664 149.669C120.216 145.182 119.252 138.024 118.362 137.394C117.472 136.764 122.589 135.058 119.919 134.316C117.249 133.574 118.77 129.607 118.918 128.568C119.066 127.53 119.808 125.639 119.919 118.964C119.993 115.774 119.511 112.919 119.029 110.768C118.881 110.212 119.548 109.804 119.993 110.138C120.512 110.583 121.18 110.954 121.773 111.028Z" fill="black"/>
<path opacity="0.15" d="M111.798 108.878L111.39 107.209C111.39 107.209 105.309 107.061 103.159 113.031C101.787 116.851 102.788 122.376 103.27 125.528C103.752 128.681 104.011 128.384 103.121 132.315C102.194 136.208 100.415 137.395 101.453 139.954C102.491 142.513 102.343 145.591 101.675 147.296C101.008 149.002 103.196 147.185 103.233 148.78C103.307 150.078 107.682 161.054 106.422 164.429C107.237 164.318 108.016 164.095 108.684 163.761C109.351 163.428 110.612 163.316 112.169 163.316L111.798 108.878Z" fill="black"/>
<path opacity="0.15" d="M120.401 108.989C120.253 108.804 120.104 108.618 119.919 108.396L111.279 101.461C110.686 101.35 110.167 101.387 109.648 101.572C109.648 101.572 109.425 101.795 109.017 102.129C109.017 102.129 112.799 105.726 116.026 106.912L120.401 108.989Z" fill="black"/>
<path d="M112.503 98.4203C112.503 98.4203 112.021 99.7553 113.356 100.719C114.691 101.721 118.918 104.391 119.845 104.65C120.772 104.91 121.773 105.763 121.773 106.059C121.773 106.356 122.44 107.914 122.292 109.397C122.144 110.88 123.034 111.251 121.847 110.992C120.624 110.769 119.14 108.804 118.955 108.359C118.769 107.914 108.721 103.241 109.611 100.905C110.538 98.5316 112.169 98.1236 112.503 98.4203Z" fill="url(#paint27_linear_2019_12621)"/>
<path d="M119.919 121.486C121.365 117.778 121.328 113.106 119.437 109.657C118.362 107.654 116.767 106.579 114.987 105.911C114.876 105.874 114.765 105.837 114.691 105.8C111.39 104.762 107.497 105.059 104.086 111.622C102.38 114.923 101.675 119.892 101.675 119.892L105.124 120.819C105.124 120.819 108.053 110.769 110.834 108.693C113.727 106.505 115.655 117.704 119.252 123.192L119.919 121.486Z" fill="url(#paint28_linear_2019_12621)"/>
<path d="M93.258 116.555C93.258 116.555 90.7365 117.111 89.7724 121.227L91.441 120.819C91.441 120.819 91.6635 117.445 94.3704 116.926C94.3704 116.889 94.185 116.444 93.258 116.555Z" fill="url(#paint29_linear_2019_12621)"/>
<path d="M93.258 116.555C93.258 116.555 90.7365 117.111 89.7724 121.227L91.441 120.819C91.441 120.819 91.6635 117.445 94.3704 116.926C94.3704 116.889 94.185 116.444 93.258 116.555Z" fill="url(#paint30_linear_2019_12621)"/>
<path d="M95.2232 119.929L97.0031 119.298C97.0031 119.298 96.966 115.924 93.2209 116.591C93.258 116.554 95.2603 116.406 95.2232 119.929Z" fill="url(#paint31_linear_2019_12621)"/>
<path d="M80.2426 135.801C80.2426 135.801 78.9077 147.185 78.574 148.669C78.2403 150.152 76.4604 160.053 78.9077 161.87C81.4663 163.836 83.2833 164.318 83.7282 164.54C84.1732 164.763 104.493 166.506 105.272 161.092C105.272 161.092 104.79 152.043 104.234 144.923C103.678 137.989 103.381 133.872 103.603 131.87C103.863 129.867 104.827 119.113 103.752 118.186C103.047 117.593 90.6994 119.15 85.4339 121.82C84.2844 122.451 80.7988 127.865 80.2426 135.801Z" fill="url(#paint32_linear_2019_12621)"/>
<path opacity="0.15" d="M105.124 161.239C105.124 161.239 105.309 160.571 105.495 159.348L95.0008 160.942C89.6611 163.872 78.4628 161.61 78.7594 161.869C81.318 163.835 83.1349 164.317 83.5799 164.539C84.0619 164.762 104.382 166.653 105.124 161.239Z" fill="black"/>
<path d="M78.129 151.264C78.129 151.264 77.3503 159.794 78.7965 160.313C81.6146 161.314 92.2197 161.203 92.7017 159.942C93.1838 158.644 93.5917 146.777 93.5917 146.777L78.129 151.264Z" fill="url(#paint33_linear_2019_12621)"/>
<path opacity="0.15" d="M94.7783 143.588C94.7783 143.588 95.6311 143.366 95.1491 146.11C94.667 148.854 94.4075 153.712 94.3333 154.713C94.1108 158.051 92.8872 160.424 92.1826 160.313C89.9578 159.979 91.1814 152.488 91.9231 148.186C92.6647 143.959 93.5175 143.18 94.7783 143.588Z" fill="black"/>
<path d="M106.718 144.961C106.162 138.026 105.865 133.91 106.088 131.908C106.347 129.905 104.827 119.188 103.715 118.224C103.566 118.113 103.047 118.113 102.231 118.261C102.231 118.261 99.0425 132.761 98.9313 134.837C98.8201 136.877 98.3751 140.845 97.856 143.366C97.3739 145.888 94.7041 157.94 95.0008 160.981C95.0749 161.648 97.411 162.687 98.6717 162.464C99.9696 162.242 104.716 163.206 105.124 161.092C105.124 161.055 105.124 161.055 105.124 161.018C105.458 160.313 107.274 151.747 106.718 144.961Z" fill="url(#paint34_linear_2019_12621)"/>
<path opacity="0.15" d="M106.718 144.961C106.162 138.026 105.865 133.91 106.088 131.908C106.347 129.905 104.827 119.188 103.715 118.224C103.566 118.113 103.047 118.113 102.231 118.261C102.231 118.261 99.0425 132.761 98.9313 134.837C98.8201 136.877 98.3751 140.845 97.856 143.366C97.3739 145.888 94.7041 157.94 95.0008 160.981C95.0749 161.648 97.411 162.687 98.6717 162.464C99.9696 162.242 104.716 163.206 105.124 161.092C105.124 161.055 105.124 161.055 105.124 161.018C105.458 160.313 107.274 151.747 106.718 144.961Z" fill="black"/>
<path d="M94.7783 143.589C94.7783 143.589 93.74 144.071 93.4434 147.594C93.3321 148.892 93.9254 152.341 89.6982 152.489C85.6935 152.637 78.129 153.305 77.4987 152.452C76.9054 151.636 77.8324 145.777 78.7223 144.887C79.946 143.663 90.9219 143.107 94.7783 143.589Z" fill="url(#paint35_linear_2019_12621)"/>
<path d="M82.2079 131.646C82.2079 131.646 79.1673 141.288 81.9113 141.992C83.8395 142.512 94.667 142.845 95.2232 141.325C95.7794 139.767 97.2256 125.75 97.2256 125.75L82.2079 131.646Z" fill="url(#paint36_linear_2019_12621)"/>
<path d="M98.5605 122.005C98.5605 122.005 99.3392 121.783 98.6717 124.972C98.0043 128.198 97.2998 133.909 97.1514 135.058C96.6323 138.989 95.3345 141.882 94.7041 141.808C92.7017 141.548 94.5187 132.574 95.594 127.493C96.6694 122.45 97.4852 121.56 98.5605 122.005Z" fill="url(#paint37_linear_2019_12621)"/>
<path d="M94.7783 143.588C94.7783 143.588 95.6311 143.366 95.1491 146.11C94.667 148.854 94.4075 153.712 94.3333 154.713C94.1108 158.051 92.8872 160.424 92.1826 160.313C89.9578 159.979 91.1814 152.488 91.9231 148.186C92.6647 143.959 93.5175 143.18 94.7783 143.588Z" fill="url(#paint38_linear_2019_12621)"/>
<path d="M98.5605 122.005C98.5605 122.005 99.3392 121.783 98.6717 124.972C98.0043 128.198 97.2998 133.909 97.1514 135.058C96.6323 138.989 95.3345 141.882 94.7041 141.808C92.7017 141.548 94.5187 132.574 95.594 127.493C96.6694 122.45 97.4852 121.56 98.5605 122.005Z" fill="url(#paint39_linear_2019_12621)"/>
<path opacity="0.15" d="M94.7783 143.588C94.7783 143.588 95.6311 143.366 95.1491 146.11C94.667 148.854 94.4075 153.712 94.3333 154.713C94.1108 158.051 92.8872 160.424 92.1826 160.313C89.9578 159.979 91.1814 152.488 91.9231 148.186C92.6647 143.959 93.5175 143.18 94.7783 143.588Z" fill="black"/>
<path opacity="0.15" d="M94.7783 143.588C94.7783 143.588 95.6311 143.366 95.1491 146.11C94.667 148.854 94.4075 153.712 94.3333 154.713C94.1108 158.051 92.8872 160.424 92.1826 160.313C89.9578 159.979 91.1814 152.488 91.9231 148.186C92.6647 143.959 93.5175 143.18 94.7783 143.588Z" fill="black"/>
<path opacity="0.15" d="M98.5605 122.005C98.5605 122.005 99.3392 121.783 98.6717 124.972C98.0043 128.198 97.2998 133.909 97.1514 135.058C96.6323 138.989 95.3345 141.882 94.7041 141.808C92.7017 141.548 94.5187 132.574 95.594 127.493C96.6694 122.45 97.4852 121.56 98.5605 122.005Z" fill="black"/>
<path d="M86.0272 124.193C87.1396 123.822 95.6682 121.486 98.5976 122.042C98.5976 122.042 97.6335 122.598 97.0402 126.752C96.8177 128.272 97.0402 132.314 93.2209 132.648C89.4757 132.982 82.0596 134.168 81.5034 133.13C80.9842 132.129 82.4675 128.05 83.2462 126.863C83.617 126.27 84.5069 124.675 86.0272 124.193Z" fill="url(#paint40_linear_2019_12621)"/>
<path opacity="0.2" d="M85.1744 131.758L84.8406 134.428C84.8036 134.688 84.5811 134.91 84.3957 134.91C84.0249 134.873 83.4687 134.836 83.0608 134.873C82.8754 134.873 82.6158 134.428 82.6529 134.206L83.0608 131.869C83.0608 131.647 83.2462 131.461 83.3945 131.387C83.7282 131.313 84.2103 130.868 84.8777 131.016C85.026 131.091 85.1744 131.573 85.1744 131.758Z" fill="black"/>
<path d="M85.026 131.388L84.6923 134.058C84.6552 134.318 84.4328 134.54 84.2473 134.54C83.8765 134.503 83.3203 134.466 82.9124 134.503C82.727 134.503 82.6158 134.355 82.6158 134.132L82.9124 131.499C82.9124 131.277 83.0978 131.091 83.2462 131.017C83.5799 130.943 84.1361 130.869 84.8036 131.017C84.989 131.054 85.0631 131.203 85.026 131.388Z" fill="url(#paint41_linear_2019_12621)"/>
<path opacity="0.2" d="M93.3321 131.239L92.9984 133.909C92.9613 134.168 92.7388 134.391 92.5534 134.391C92.1826 134.354 91.6264 134.316 91.2185 134.354C91.0331 134.354 90.7736 133.909 90.8106 133.686L91.2185 131.35C91.2185 131.127 91.4039 130.942 91.5523 130.868C91.886 130.794 92.368 130.349 93.0355 130.497C93.1838 130.534 93.3321 131.053 93.3321 131.239Z" fill="black"/>
<path d="M93.1838 130.869L92.8501 133.539C92.813 133.798 92.5905 134.021 92.4051 134.021C92.0343 133.984 91.4781 133.946 91.0702 133.984C90.8848 133.984 90.7736 133.835 90.7736 133.613L91.0702 130.98C91.0702 130.757 91.2556 130.572 91.4039 130.498C91.7377 130.424 92.2939 130.349 92.9613 130.498C93.1838 130.498 93.2209 130.683 93.1838 130.869Z" fill="url(#paint42_linear_2019_12621)"/>
<path opacity="0.2" d="M81.4663 151.375L81.1326 154.045C81.0955 154.305 80.873 154.527 80.6876 154.527C80.3168 154.49 79.7606 154.453 79.3527 154.49C79.1673 154.49 78.9077 154.045 78.9448 153.823L79.3527 151.486C79.3527 151.264 79.5381 151.079 79.6864 151.004C80.0202 150.93 80.5022 150.485 81.1697 150.634C81.318 150.708 81.4663 151.227 81.4663 151.375Z" fill="black"/>
<path d="M81.318 151.005L80.9842 153.675C80.9472 153.935 80.7247 154.157 80.5393 154.157C80.1685 154.12 79.6123 154.083 79.2044 154.12C79.019 154.12 78.9077 153.972 78.9077 153.749L79.2044 151.117C79.2044 150.894 79.3898 150.709 79.5381 150.634C79.8718 150.56 80.428 150.486 81.0955 150.634C81.2809 150.672 81.3551 150.857 81.318 151.005Z" fill="url(#paint43_linear_2019_12621)"/>
<path opacity="0.2" d="M89.6241 150.856L89.2903 153.526C89.2532 153.785 89.0308 154.008 88.8454 154.008C88.4746 153.971 87.9183 153.934 87.5105 153.971C87.3251 153.971 87.0655 153.526 87.1026 153.303L87.5105 150.967C87.5105 150.744 87.6959 150.559 87.8442 150.485C88.1779 150.411 88.66 149.966 89.3274 150.114C89.4757 150.188 89.6241 150.67 89.6241 150.856Z" fill="black"/>
<path d="M89.4757 150.486L89.142 153.156C89.1049 153.415 88.8824 153.638 88.697 153.638C88.3262 153.601 87.77 153.564 87.3621 153.601C87.1767 153.601 87.0655 153.452 87.0655 153.23L87.3621 150.597C87.3621 150.375 87.5475 150.189 87.6959 150.115C88.0296 150.041 88.5858 149.967 89.2532 150.115C89.4757 150.152 89.5128 150.3 89.4757 150.486Z" fill="url(#paint44_linear_2019_12621)"/>
<path opacity="0.15" d="M85.026 131.388L84.6923 134.058C84.6552 134.318 84.4328 134.54 84.2473 134.54C83.8765 134.503 83.3203 134.466 82.9124 134.503C82.727 134.503 82.6158 134.355 82.6158 134.132L82.9124 131.499C82.9124 131.277 83.0978 131.091 83.2462 131.017C83.5799 130.943 84.1361 130.869 84.8036 131.017C84.989 131.054 85.0631 131.203 85.026 131.388Z" fill="black"/>
<path opacity="0.15" d="M93.1838 130.869L92.8501 133.539C92.813 133.798 92.5905 134.021 92.4051 134.021C92.0343 133.984 91.4781 133.946 91.0702 133.984C90.8848 133.984 90.7736 133.835 90.7736 133.613L91.0702 130.98C91.0702 130.757 91.2556 130.572 91.4039 130.498C91.7377 130.424 92.2939 130.349 92.9613 130.498C93.1838 130.498 93.2209 130.683 93.1838 130.869Z" fill="black"/>
<path opacity="0.15" d="M81.318 151.005L80.9842 153.675C80.9472 153.935 80.7247 154.157 80.5393 154.157C80.1685 154.12 79.6123 154.083 79.2044 154.12C79.019 154.12 78.9077 153.972 78.9077 153.749L79.2044 151.117C79.2044 150.894 79.3898 150.709 79.5381 150.634C79.8718 150.56 80.428 150.486 81.0955 150.634C81.2809 150.672 81.3551 150.857 81.318 151.005Z" fill="black"/>
<path opacity="0.15" d="M89.4757 150.486L89.142 153.156C89.1049 153.415 88.8824 153.638 88.697 153.638C88.3262 153.601 87.77 153.564 87.3621 153.601C87.1767 153.601 87.0655 153.452 87.0655 153.23L87.3621 150.597C87.3621 150.375 87.5475 150.189 87.6959 150.115C88.0296 150.041 88.5858 149.967 89.2532 150.115C89.4757 150.152 89.5128 150.3 89.4757 150.486Z" fill="black"/>
<path d="M91.5152 170.991L91.2927 171.659L89.8095 171.288C89.8095 171.288 89.7353 170.584 89.6982 169.953C89.9949 170.027 90.6252 170.176 91.0331 170.398C91.4781 170.546 91.5152 170.843 91.5152 170.991Z" fill="#C6753E"/>
<path d="M50.0589 245.344C51.3082 245.344 52.3209 244.332 52.3209 243.082C52.3209 241.833 51.3082 240.82 50.0589 240.82C48.8097 240.82 47.797 241.833 47.797 243.082C47.797 244.332 48.8097 245.344 50.0589 245.344Z" fill="url(#paint45_linear_2019_12621)"/>
<path d="M55.5098 247.569C56.759 247.569 57.7717 246.556 57.7717 245.307C57.7717 244.058 56.759 243.045 55.5098 243.045C54.2606 243.045 53.2479 244.058 53.2479 245.307C53.2479 246.556 54.2606 247.569 55.5098 247.569Z" fill="url(#paint46_linear_2019_12621)"/>
<path d="M62.7405 249.46C63.9898 249.46 65.0025 248.447 65.0025 247.198C65.0025 245.948 63.9898 244.936 62.7405 244.936C61.4913 244.936 60.4786 245.948 60.4786 247.198C60.4786 248.447 61.4913 249.46 62.7405 249.46Z" fill="url(#paint47_linear_2019_12621)"/>
<path d="M69.6005 251.387C70.8497 251.387 71.8624 250.375 71.8624 249.125C71.8624 247.876 70.8497 246.863 69.6005 246.863C68.3512 246.863 67.3386 247.876 67.3386 249.125C67.3386 250.375 68.3512 251.387 69.6005 251.387Z" fill="url(#paint48_linear_2019_12621)"/>
<path opacity="0.2" d="M71.8624 249.312C71.8624 249.237 71.8624 249.163 71.8624 249.052V249.015C71.8624 248.941 71.8624 248.867 71.8253 248.792C71.8253 248.755 71.8253 248.755 71.8253 248.718C71.8253 248.644 71.7882 248.607 71.7882 248.533C71.7882 248.496 71.7882 248.496 71.7882 248.459C71.7512 248.385 71.7512 248.31 71.7141 248.236C71.677 248.125 71.6399 248.051 71.5657 247.94C71.5657 247.902 71.5287 247.902 71.5287 247.865C71.4545 247.791 71.4174 247.68 71.3433 247.606C71.2691 247.532 71.1949 247.457 71.1208 247.383L71.0837 247.346C71.0095 247.272 70.9354 247.235 70.8241 247.161C70.75 247.087 70.6387 247.05 70.5646 247.012C70.5646 247.012 70.5646 247.012 70.5275 247.012C70.3421 246.938 70.1196 246.864 69.8971 246.827C69.7859 246.827 69.6746 246.79 69.5634 246.827C69.3038 246.827 69.0072 246.901 68.7476 247.012C68.3026 247.198 67.9689 247.495 67.7094 247.865L71.1208 249.015C71.1208 249.905 70.6017 250.721 69.7488 251.092C69.4892 251.203 69.1926 251.277 68.933 251.277C69.4521 251.425 70.0084 251.425 70.5275 251.203C71.2691 250.869 71.7882 250.127 71.8624 249.312Z" fill="black"/>
<path opacity="0.2" d="M52.2838 242.785C52.2838 242.71 52.2467 242.599 52.2467 242.525V242.488C52.2096 242.414 52.2096 242.303 52.1725 242.228C52.1355 242.117 52.0984 242.043 52.0242 241.932C52.0242 241.895 51.9871 241.895 51.9871 241.858C51.913 241.783 51.8759 241.672 51.8017 241.598C51.7276 241.524 51.6534 241.45 51.5793 241.375L51.5422 241.338C51.468 241.264 51.3938 241.227 51.2826 241.153C51.2084 241.116 51.0972 241.042 51.023 241.005C51.023 241.005 51.023 241.005 50.986 241.005C50.8006 240.93 50.5781 240.856 50.3556 240.819C50.2443 240.819 50.1331 240.782 50.0219 240.819C49.7623 240.819 49.4656 240.893 49.2061 241.005C48.9094 241.116 48.6499 241.301 48.4645 241.524L51.5422 242.562C51.7276 243.6 51.2084 244.676 50.2073 245.084C49.9477 245.195 49.6511 245.269 49.3915 245.269C49.9106 245.418 50.4668 245.418 50.986 245.195C51.8759 244.787 52.395 243.786 52.2838 242.785Z" fill="black"/>
<path opacity="0.2" d="M65.0025 247.012C65.0025 246.901 64.9654 246.79 64.9654 246.678V246.641C64.9283 246.53 64.8912 246.419 64.8541 246.308C64.8171 246.196 64.78 246.122 64.7058 246.011C64.7058 245.974 64.6687 245.974 64.6687 245.937C64.5946 245.863 64.5575 245.751 64.4833 245.677C64.4092 245.603 64.335 245.529 64.2609 245.455L64.2238 245.418C64.1496 245.343 64.0755 245.306 63.9642 245.232C63.89 245.158 63.7788 245.121 63.7046 245.084C63.7046 245.084 63.7046 245.084 63.6676 245.084C63.3709 244.936 63.0372 244.898 62.7035 244.898C62.4439 244.898 62.1473 244.973 61.8877 245.084C61.554 245.232 61.2573 245.455 61.0348 245.677L64.2238 246.753C64.3721 247.754 63.8159 248.755 62.8518 249.163C62.5922 249.274 62.2956 249.348 62.036 249.348C62.5551 249.497 63.1114 249.497 63.6305 249.274C64.5204 248.866 65.0396 247.976 65.0025 247.012Z" fill="black"/>
<path opacity="0.2" d="M57.6234 244.417C57.5863 244.306 57.5492 244.232 57.4751 244.12C57.4751 244.083 57.438 244.083 57.438 244.046C57.3638 243.972 57.3268 243.861 57.2526 243.787C57.1784 243.712 57.1043 243.638 57.0301 243.564L56.993 243.527C56.9189 243.453 56.8447 243.416 56.7335 243.342C56.6593 243.267 56.5481 243.23 56.4739 243.193C56.4739 243.193 56.4739 243.193 56.4368 243.193C56.1402 243.045 55.8065 243.008 55.4727 243.008C55.2132 243.008 54.9165 243.082 54.6569 243.193C54.5086 243.267 54.3603 243.342 54.2491 243.416L56.8818 244.269C57.3638 245.418 56.8076 246.753 55.6581 247.235C55.3986 247.347 55.1019 247.421 54.8423 247.421C55.3615 247.569 55.9177 247.569 56.4368 247.347C57.5492 246.902 58.0684 245.641 57.6976 244.528C57.6605 244.528 57.6234 244.491 57.6234 244.417Z" fill="black"/>
<path d="M74.6434 213.341L87.77 170.398L90.6623 171.474L77.4616 214.157L74.6434 213.341Z" fill="url(#paint49_linear_2019_12621)"/>
<path d="M93.4063 168.357C92.4051 169.47 91.3298 169.433 91.7006 170.434L73.7906 228.952L76.5716 229.767L93.7771 174.254L94.9637 170.36C95.2974 168.728 93.4063 168.357 93.4063 168.357Z" fill="url(#paint50_linear_2019_12621)"/>
<path d="M95.0008 170.397L93.9625 173.809L93.8142 174.291L76.6087 229.804L73.8277 228.989L90.6252 173.92C91.3298 173.994 91.886 173.957 91.886 173.623C91.886 173.289 91.441 172.993 90.996 172.733L91.7006 170.397C91.3298 169.433 92.4051 169.47 93.3692 168.357C93.3692 168.357 93.3692 168.357 93.4063 168.32C93.5917 168.394 95.2974 168.839 95.0008 170.397Z" fill="url(#paint51_linear_2019_12621)"/>
<path d="M49.8735 241.338L69.9342 248.013C71.8995 248.681 74.0502 247.568 74.6435 245.566L88.8824 198.729C89.3645 197.172 88.4746 195.503 86.9172 195.021L74.2356 191.053C69.1555 189.458 63.7046 192.24 61.9989 197.283L48.3162 238.297C47.9453 239.558 48.6128 240.93 49.8735 241.338Z" fill="url(#paint52_linear_2019_12621)"/>
<path opacity="0.2" d="M52.7658 240.411L69.1184 193.612C69.7859 191.683 71.8624 190.571 73.8277 191.09L77.3133 191.98L74.2726 191.016C69.1926 189.421 63.7417 192.203 62.036 197.246L48.3532 238.26C47.9453 239.521 48.6128 240.856 49.8735 241.301L50.5039 241.523C51.4309 241.857 52.4692 241.338 52.7658 240.411Z" fill="black"/>
<path opacity="0.2" d="M77.7953 192.166L61.6281 243.564C61.3686 244.379 60.4786 244.861 59.6628 244.565L63.5192 245.863C64.1867 246.085 64.9283 245.714 65.1508 245.01L81.2809 193.241L77.7953 192.166Z" fill="black"/>
<path d="M72.122 228.507L74.4951 229.323L75.9413 225.318L75.83 224.947C75.83 224.947 79.3156 220.089 79.4639 213.155L79.6864 213.007L80.873 209.15L78.6852 208.445L77.6099 212.154L78.129 213.118C78.129 213.118 78.2774 217.939 74.6435 224.577L73.4939 224.873L72.122 228.507Z" fill="url(#paint53_linear_2019_12621)"/>
<path d="M74.6064 224.576L75.7929 224.947L74.3839 228.841L72.8636 228.285L74.1985 224.65L74.6064 224.576Z" fill="url(#paint54_linear_2019_12621)"/>
<path d="M74.0502 226.246L75.4592 221.5L73.3085 220.869L72.2332 224.8L72.7523 225.95L74.0502 226.246Z" fill="url(#paint55_linear_2019_12621)"/>
<path d="M95.0008 170.397C95.3345 168.765 93.4434 168.357 93.4434 168.357C92.4422 169.47 91.3668 169.433 91.7376 170.434L91.3668 171.695L91.8118 171.324C92.7759 170.471 94.2221 170.99 94.5187 172.177L95.0008 170.397Z" fill="url(#paint56_linear_2019_12621)"/>
<path d="M90.5882 168.877C90.5882 168.877 89.8836 170.472 90.8848 170.879C91.1814 170.991 91.441 171.139 91.441 171.139L91.0702 172.326L89.587 171.955C89.587 171.955 89.3645 169.544 89.4016 169.396C89.5128 169.248 90.5882 168.877 90.5882 168.877Z" fill="#D38048"/>
<path d="M93.8142 167.95L92.5534 170.509L91.4781 171.065C91.4781 171.065 91.4781 171.028 91.5152 170.954C91.5152 170.806 91.4781 170.509 91.0702 170.324C90.6252 170.138 90.0319 169.953 89.7353 169.879C89.6241 169.842 89.5499 169.842 89.5499 169.842L89.0308 171.547L88.3262 171.102C88.3262 171.102 87.288 167.579 88.3262 167.431C89.3274 167.32 93.8142 167.95 93.8142 167.95Z" fill="url(#paint57_linear_2019_12621)"/>
<path d="M90.3657 169.619C90.3657 169.619 89.6611 171.214 90.6623 171.622C90.959 171.733 91.2185 171.881 91.2185 171.881L90.8477 173.068L89.3645 172.697C89.3645 172.697 89.142 170.287 89.1791 170.138C89.2162 169.99 90.3657 169.619 90.3657 169.619Z" fill="#E88C4D"/>
<path d="M105.939 150.929C105.939 150.966 105.939 151.003 105.976 151.04C106.014 151.3 106.014 151.448 106.014 151.448C105.828 151.782 105.569 152.153 105.272 152.561C102.676 156.418 97.0771 163.908 97.0771 163.908C97.1141 169.285 97.1141 170.472 96.4096 171.103C95.8163 171.622 94.6668 173.439 93.9623 173.81L95.0005 170.398C95.2972 168.84 93.6286 168.395 93.4432 168.358H93.4061C91.4408 168.062 90.7733 168.878 90.3655 169.619C90.3284 169.693 90.2913 169.73 90.2913 169.805C90.2542 169.879 90.2171 169.916 90.2171 169.99C90.1801 170.064 90.1801 170.101 90.143 170.175C89.9946 170.509 89.9205 170.917 89.8463 171.251C89.8092 171.473 89.8092 171.696 89.8092 171.881C89.8092 171.955 89.8463 172.03 89.8463 172.067C89.8463 172.104 89.8834 172.104 89.8834 172.104C89.8834 172.104 89.8834 172.141 89.9205 172.141C89.9205 172.178 89.9576 172.178 89.9946 172.215C90.0317 172.252 90.0317 172.252 90.0688 172.252C90.1059 172.289 90.1059 172.289 90.143 172.289C90.2171 172.326 90.2542 172.363 90.3284 172.4C90.4767 172.475 90.625 172.549 90.8104 172.66C90.8475 172.697 90.9217 172.697 90.9587 172.734L90.5879 173.921C90.5138 173.921 90.4767 173.884 90.4025 173.884C90.3655 173.884 90.3655 173.884 90.3284 173.884C90.2542 173.884 90.1801 173.847 90.1059 173.847H90.0688C89.8834 173.81 89.698 173.773 89.5126 173.698C89.4384 173.661 89.3272 173.624 89.253 173.624C89.1789 173.587 89.0676 173.55 88.9935 173.513C88.8451 173.439 88.6968 173.365 88.5485 173.328C88.4743 173.29 88.4002 173.253 88.3631 173.179C88.3631 173.179 88.3631 173.179 88.3631 173.142C88.326 173.105 88.2889 173.068 88.2889 173.031C87.8811 172.475 87.6586 171.399 87.4732 170.287C87.4361 169.99 87.399 169.73 87.3619 169.434C87.3248 169.137 87.2878 168.878 87.2507 168.618C87.2507 168.507 87.2136 168.395 87.2136 168.321C87.1765 168.21 87.1765 168.099 87.1394 167.988C87.1024 167.876 87.1024 167.802 87.0653 167.728C87.0282 167.654 87.0282 167.58 87.0282 167.468C87.0282 167.431 87.0282 167.357 87.0282 167.32C87.0282 167.246 87.0653 167.172 87.0653 167.098C87.0653 167.023 87.1024 166.986 87.1394 166.912C87.1394 166.912 87.1394 166.912 87.1394 166.875C87.1394 166.838 87.1394 166.838 87.1765 166.838C87.2136 166.727 87.2507 166.615 87.3248 166.504C87.3619 166.393 87.4361 166.319 87.4732 166.208C87.5102 166.17 87.5473 166.096 87.5844 166.022C87.6215 165.948 87.6586 165.911 87.6956 165.837C87.7327 165.763 87.7698 165.725 87.844 165.651C87.9923 165.429 88.1406 165.243 88.326 165.058C88.4002 164.984 88.4743 164.873 88.5485 164.798C88.5485 164.798 88.5485 164.761 88.5856 164.761C88.6597 164.65 88.771 164.576 88.8451 164.465C88.9193 164.39 88.9564 164.353 89.0306 164.279C89.0676 164.242 89.1418 164.168 89.1789 164.131C89.2901 164.02 89.3643 163.945 89.4755 163.834C89.5126 163.834 89.5126 163.797 89.5497 163.76C89.6238 163.686 89.6609 163.649 89.7351 163.575C89.7351 163.538 89.7722 163.538 89.7722 163.538C89.8834 163.426 89.9946 163.352 90.1059 163.241C90.2542 163.13 90.3655 163.018 90.4767 162.944C90.8475 162.685 91.1812 162.425 91.4779 162.203C91.5891 162.128 91.6633 162.054 91.7374 161.98C91.8487 161.906 91.9228 161.795 91.997 161.72C92.1082 161.609 92.2195 161.461 92.3307 161.313C92.3678 161.275 92.4049 161.201 92.442 161.164C92.5161 161.053 92.5532 160.979 92.6274 160.868C92.7015 160.719 92.7757 160.571 92.8499 160.423C92.9611 160.2 93.0353 159.978 93.1094 159.755C93.1094 159.718 93.1094 159.718 93.1465 159.681C93.1836 159.57 93.2207 159.458 93.2577 159.347C93.369 158.939 96.113 152.672 96.7433 150.225C97.4108 147.777 97.9299 145.738 97.9299 145.738C98.0782 145.7 98.2266 145.663 98.3749 145.626C98.449 145.626 98.5232 145.589 98.6345 145.589C98.7086 145.589 98.7828 145.552 98.8569 145.552L99.3019 145.478C99.4131 145.478 99.4873 145.441 99.5986 145.441H99.6356C105.42 144.588 105.643 149.372 105.939 150.929Z" fill="url(#paint58_linear_2019_12621)"/>
<path opacity="0.1" d="M105.94 150.967C105.94 151.004 105.94 151.041 105.94 151.079C105.977 151.338 105.977 151.486 105.977 151.486C105.791 151.82 105.532 152.191 105.235 152.599C105.013 152.673 103.418 152.339 102.825 151.857C102.009 151.227 100.785 149.929 99.1909 153.786C97.5964 157.605 96.8548 162.611 95.4457 163.056C93.9996 163.539 93.0355 166.023 91.9972 166.579C91.4781 166.839 91.0702 167.618 90.7736 168.322C90.514 168.99 90.3657 169.583 90.3286 169.657C90.2915 169.731 90.2544 169.769 90.2544 169.843C90.2173 169.917 90.1803 169.954 90.1803 170.028C90.1432 170.102 90.1432 170.139 90.1061 170.214C89.9578 170.547 89.8836 170.955 89.8095 171.289C89.7724 171.511 89.7724 171.734 89.7724 171.919C89.7724 171.994 89.8095 172.068 89.8095 172.105C89.8095 172.105 89.8095 172.142 89.8465 172.142C89.8465 172.142 89.8465 172.179 89.8836 172.179C89.8836 172.216 89.9207 172.216 89.9578 172.253C89.9949 172.29 89.9949 172.29 90.0319 172.29C90.069 172.29 90.069 172.327 90.1061 172.327C90.1803 172.364 90.2173 172.401 90.2915 172.439C90.4398 172.513 90.5882 172.587 90.7736 172.698C90.8106 172.735 90.8848 172.735 90.9219 172.772L90.5511 173.959C90.4769 173.959 90.3657 173.922 90.2915 173.922C90.2173 173.922 90.1432 173.885 90.069 173.885H90.0319C89.8465 173.848 89.6611 173.811 89.4757 173.736C89.4016 173.699 89.2903 173.662 89.2162 173.662C89.142 173.625 89.0308 173.588 88.9566 173.551C88.8824 173.514 88.8083 173.477 88.7341 173.44C88.66 173.403 88.5858 173.366 88.5116 173.329C88.4375 173.291 88.3633 173.254 88.3262 173.18C88.3262 173.18 88.3262 173.18 88.3262 173.143C88.2891 173.106 88.2521 173.069 88.2521 173.032C87.8442 172.476 87.6217 171.4 87.4363 170.288C87.3992 169.991 87.3621 169.731 87.325 169.435C87.288 169.138 87.2509 168.879 87.2138 168.619C87.2138 168.508 87.1767 168.396 87.1767 168.322C87.1396 168.211 87.1396 168.1 87.1026 167.989C87.0655 167.877 87.0655 167.803 87.0284 167.729C86.9913 167.655 86.9913 167.581 86.9913 167.469C86.9913 167.432 86.9913 167.358 86.9913 167.321C86.9913 167.247 87.0284 167.173 87.0284 167.099C87.0284 167.024 87.0655 166.987 87.1026 166.913C87.1026 166.913 87.1026 166.913 87.1026 166.876C87.1026 166.839 87.1026 166.839 87.1396 166.839C87.1767 166.728 87.2138 166.616 87.288 166.505C87.325 166.394 87.3992 166.32 87.4363 166.209C87.4734 166.171 87.5105 166.097 87.5475 166.023C87.5846 165.949 87.6217 165.912 87.6588 165.838C87.6959 165.764 87.7329 165.726 87.8071 165.652C87.9554 165.43 88.1037 165.244 88.2891 165.059C88.3633 164.985 88.4375 164.874 88.5116 164.799C88.5116 164.799 88.5116 164.762 88.5487 164.762C88.6229 164.651 88.7341 164.577 88.8083 164.466C88.8824 164.391 88.9195 164.354 88.9937 164.28C89.0308 164.243 89.1049 164.169 89.142 164.132C89.2532 164.021 89.3274 163.946 89.4386 163.835C89.4757 163.835 89.4757 163.798 89.5128 163.761C89.587 163.687 89.6241 163.65 89.6982 163.576C89.6982 163.539 89.7353 163.539 89.7353 163.539C89.8465 163.427 89.9578 163.353 90.069 163.242C90.2173 163.131 90.3286 163.019 90.4398 162.945C90.8106 162.686 91.1444 162.426 91.441 162.204C91.5523 162.129 91.6264 162.055 91.7006 161.981C91.8118 161.907 91.886 161.796 91.9601 161.721C92.0714 161.573 92.1826 161.462 92.2939 161.314C92.3309 161.276 92.368 161.202 92.4051 161.165C92.4793 161.054 92.5163 160.98 92.5905 160.869C92.6647 160.72 92.7388 160.572 92.813 160.424C92.9242 160.201 92.9984 159.979 93.0726 159.756C93.0726 159.719 93.0726 159.719 93.1096 159.682C93.1467 159.571 93.1838 159.459 93.2209 159.348C93.3321 158.94 96.0761 152.673 96.7065 150.226C97.3739 147.778 97.893 145.739 97.893 145.739C98.0414 145.701 98.1897 145.664 98.338 145.627C98.4122 145.627 98.4863 145.59 98.5976 145.59C98.6717 145.59 98.7459 145.553 98.8201 145.553L99.265 145.479C99.3763 145.479 99.4504 145.442 99.5617 145.442C99.6729 145.442 99.7842 145.405 99.8954 145.405C104.901 144.811 105.346 148.557 105.791 150.448C105.791 150.634 105.865 150.782 105.94 150.967C105.94 150.93 105.94 150.967 105.94 150.967Z" fill="#D0001D"/>
<path d="M119.808 111.474C119.808 111.474 118.028 107.395 113.17 108.062C108.313 108.73 104.901 119.855 103.418 122.562C101.935 125.232 103.121 127.828 102.38 128.718C101.638 129.57 100.452 132.574 99.8583 132.871C99.3021 133.093 101.527 134.948 99.71 136.06C97.893 137.173 98.0414 139.472 98.8201 139.954C99.5617 140.436 100.415 139.101 102.676 140.362C104.975 141.623 109.462 143.662 110.018 143.44C110.575 143.217 111.316 142.327 111.168 141.623C110.983 140.918 112.206 139.101 112.614 138.137C113.022 137.173 112.466 136.765 112.874 135.281C113.282 133.798 114.579 130.535 114.765 130.164C114.95 129.83 117.064 126.678 118.399 123.044C119.734 119.224 120.586 112.623 119.808 111.474Z" fill="url(#paint59_linear_2019_12621)"/>
<path opacity="0.15" d="M110.76 142.735C108.869 140.176 99.9325 137.951 100.934 136.987C101.972 136.023 104.642 134.54 103.418 133.761C102.194 132.982 103.121 130.275 106.459 129.459C109.796 128.643 107.757 124.379 107.497 122.599C107.237 120.819 107.015 114.552 112.503 110.732C116.433 108.025 118.473 109.546 119.326 110.658C118.51 109.508 116.619 107.58 113.17 108.062C108.313 108.73 104.901 119.855 103.418 122.562C101.935 125.232 103.121 127.828 102.38 128.718C101.638 129.571 100.452 132.574 99.8583 132.871C99.3021 133.093 101.527 134.948 99.71 136.06C97.893 137.173 98.0414 139.472 98.8201 139.954C99.5617 140.436 100.415 139.101 102.676 140.362C104.975 141.623 109.462 143.662 110.018 143.44C110.241 143.217 110.538 142.995 110.76 142.735Z" fill="black"/>
<path d="M98.9313 139.137C98.9313 139.137 97.9301 138.395 97.4852 139.582C97.0773 140.806 97.5222 143.698 96.484 145.627C95.4828 147.555 94.9266 148.074 95.7424 148.297C96.5581 148.519 100.118 147.889 101.787 149.483C103.455 151.078 106.978 151.56 107.608 151.523C108.276 151.523 108.684 151.56 108.906 149.52C109.129 147.481 109.796 145.849 110.204 145.219C110.575 144.551 110.686 143.921 109.981 143.365C109.314 142.734 104.197 139.137 98.9313 139.137Z" fill="url(#paint60_linear_2019_12621)"/>
<defs>
<linearGradient id="paint0_linear_2019_12621" x1="177.413" y1="279.102" x2="177.413" y2="190.458" gradientUnits="userSpaceOnUse">
<stop stop-color="#DCE7F5"/>
<stop offset="0.4896" stop-color="#C1D1F2"/>
<stop offset="1" stop-color="#A9BDF0"/>
</linearGradient>
<linearGradient id="paint1_linear_2019_12621" x1="70.4404" y1="229.729" x2="198.245" y2="217.718" gradientUnits="userSpaceOnUse">
<stop offset="0.13" stop-color="#52658F" stop-opacity="0"/>
<stop offset="0.5314" stop-color="#47587C" stop-opacity="0.2307"/>
<stop offset="1" stop-color="#3D4C6B" stop-opacity="0.5"/>
</linearGradient>
<linearGradient id="paint2_linear_2019_12621" x1="215.747" y1="211.597" x2="239.597" y2="211.597" gradientUnits="userSpaceOnUse">
<stop stop-color="#24284D"/>
<stop offset="1" stop-color="#414B72"/>
</linearGradient>
<linearGradient id="paint3_linear_2019_12621" x1="244.321" y1="53.0234" x2="244.321" y2="153.111" gradientUnits="userSpaceOnUse">
<stop stop-color="#A3A6AD"/>
<stop offset="0.2738" stop-color="#C7CCD3"/>
<stop offset="1" stop-color="white"/>
</linearGradient>
<linearGradient id="paint4_linear_2019_12621" x1="186.263" y1="32.5633" x2="309.507" y2="32.2321" gradientUnits="userSpaceOnUse">
<stop stop-color="#24284D"/>
<stop offset="1" stop-color="#414B72"/>
</linearGradient>
<linearGradient id="paint5_linear_2019_12621" x1="221.409" y1="37.1873" x2="247.714" y2="36.1884" gradientUnits="userSpaceOnUse">
<stop stop-color="#24284D"/>
<stop offset="1" stop-color="#414B72"/>
</linearGradient>
<linearGradient id="paint6_linear_2019_12621" x1="192.119" y1="212.517" x2="339.716" y2="212.517" gradientUnits="userSpaceOnUse">
<stop stop-color="#24284D"/>
<stop offset="1" stop-color="#414B72"/>
</linearGradient>
<linearGradient id="paint7_linear_2019_12621" x1="178.849" y1="130.526" x2="267.453" y2="124.531" gradientUnits="userSpaceOnUse">
<stop stop-color="#A3A6AD"/>
<stop offset="0.1963" stop-color="#A8ACB3"/>
<stop offset="0.4554" stop-color="#B8BCC3"/>
<stop offset="0.7481" stop-color="#D2D7DF"/>
<stop offset="1" stop-color="#EDF4FC"/>
</linearGradient>
<linearGradient id="paint8_linear_2019_12621" x1="157.162" y1="166.004" x2="270.143" y2="81.9986" gradientUnits="userSpaceOnUse">
<stop stop-opacity="0.1"/>
<stop offset="1" stop-opacity="0"/>
</linearGradient>
<linearGradient id="paint9_linear_2019_12621" x1="215.299" y1="93.5649" x2="215.299" y2="144.419" gradientUnits="userSpaceOnUse">
<stop stop-opacity="0.1"/>
<stop offset="0.9354" stop-opacity="0.01"/>
<stop offset="1" stop-opacity="0"/>
</linearGradient>
<linearGradient id="paint10_linear_2019_12621" x1="215.765" y1="100.972" x2="217.09" y2="87.7231" gradientUnits="userSpaceOnUse">
<stop stop-color="#070B26"/>
<stop offset="0.3264" stop-color="#2C345B"/>
<stop offset="0.6253" stop-color="#495485"/>
<stop offset="0.8595" stop-color="#5A689F"/>
<stop offset="1" stop-color="#616FA8"/>
</linearGradient>
<linearGradient id="paint11_linear_2019_12621" x1="218.344" y1="103.796" x2="218.344" y2="24.8103" gradientUnits="userSpaceOnUse">
<stop stop-color="#2E345B"/>
<stop offset="1" stop-color="#414B72"/>
</linearGradient>
<linearGradient id="paint12_linear_2019_12621" x1="218.344" y1="95.6694" x2="218.344" y2="28.812" gradientUnits="userSpaceOnUse">
<stop stop-color="#CCDAF2"/>
<stop offset="1" stop-color="#F7F9FF"/>
</linearGradient>
<linearGradient id="paint13_linear_2019_12621" x1="179.259" y1="118.778" x2="206.729" y2="-48.8267" gradientUnits="userSpaceOnUse">
<stop stop-color="white" stop-opacity="0"/>
<stop offset="1" stop-color="white"/>
</linearGradient>
<linearGradient id="paint14_linear_2019_12621" x1="54.8889" y1="234.595" x2="44.9737" y2="250.223" gradientUnits="userSpaceOnUse">
<stop stop-color="#3D4C6B" stop-opacity="0.5"/>
<stop offset="0.3931" stop-color="#46577B" stop-opacity="0.3035"/>
<stop offset="1" stop-color="#52658F" stop-opacity="0"/>
</linearGradient>
<linearGradient id="paint15_linear_2019_12621" x1="67.1903" y1="244.082" x2="135.627" y2="244.082" gradientUnits="userSpaceOnUse">
<stop stop-color="#52658F" stop-opacity="0"/>
<stop offset="0.3528" stop-color="#445577" stop-opacity="0.2871"/>
<stop offset="0.6144" stop-color="#3D4C6B" stop-opacity="0.5"/>
<stop offset="1" stop-color="#3D4C6B" stop-opacity="0.2"/>
</linearGradient>
<linearGradient id="paint16_linear_2019_12621" x1="133.138" y1="133.747" x2="130.616" y2="116.471" gradientUnits="userSpaceOnUse">
<stop stop-color="#FFA966"/>
<stop offset="1" stop-color="#FECB8F"/>
</linearGradient>
<linearGradient id="paint17_linear_2019_12621" x1="131.551" y1="120.494" x2="145.793" y2="117.759" gradientUnits="userSpaceOnUse">
<stop stop-color="#414559"/>
<stop offset="1" stop-color="#646C82"/>
</linearGradient>
<linearGradient id="paint18_linear_2019_12621" x1="122.737" y1="243.569" x2="124.66" y2="237.211" gradientUnits="userSpaceOnUse">
<stop stop-color="#363B54"/>
<stop offset="1" stop-color="#646C82"/>
</linearGradient>
<linearGradient id="paint19_linear_2019_12621" x1="109.739" y1="216.335" x2="124.205" y2="216.591" gradientUnits="userSpaceOnUse">
<stop stop-color="#1C558A"/>
<stop offset="0.9023" stop-color="#5F87B1"/>
<stop offset="1" stop-color="#678DB5"/>
</linearGradient>
<linearGradient id="paint20_linear_2019_12621" x1="84.4803" y1="231.603" x2="90.774" y2="229.523" gradientUnits="userSpaceOnUse">
<stop stop-color="#363B54"/>
<stop offset="1" stop-color="#646C82"/>
</linearGradient>
<linearGradient id="paint21_linear_2019_12621" x1="98.8534" y1="194.826" x2="126.106" y2="192.014" gradientUnits="userSpaceOnUse">
<stop stop-color="#1C558A"/>
<stop offset="0.9023" stop-color="#5F87B1"/>
<stop offset="1" stop-color="#678DB5"/>
</linearGradient>
<linearGradient id="paint22_linear_2019_12621" x1="111.797" y1="99.3106" x2="113.644" y2="97.6696" gradientUnits="userSpaceOnUse">
<stop stop-color="#A7A9AC"/>
<stop offset="1" stop-color="#D1D3D4"/>
</linearGradient>
<linearGradient id="paint23_linear_2019_12621" x1="118.772" y1="93.7521" x2="132.701" y2="101.468" gradientUnits="userSpaceOnUse">
<stop stop-color="#FFA966"/>
<stop offset="1" stop-color="#FECB8F"/>
</linearGradient>
<linearGradient id="paint24_linear_2019_12621" x1="122.31" y1="104.305" x2="117.923" y2="102.939" gradientUnits="userSpaceOnUse">
<stop stop-color="#D0001D"/>
<stop offset="1" stop-color="#D0001D" stop-opacity="0"/>
</linearGradient>
<linearGradient id="paint25_linear_2019_12621" x1="115.435" y1="85.0113" x2="133.244" y2="94.8772" gradientUnits="userSpaceOnUse">
<stop stop-color="#212547"/>
<stop offset="1" stop-color="#414B72"/>
</linearGradient>
<linearGradient id="paint26_linear_2019_12621" x1="100.205" y1="132.937" x2="127.77" y2="132.937" gradientUnits="userSpaceOnUse">
<stop stop-color="#006747"/>
<stop offset="1" stop-color="#008F62"/>
</linearGradient>
<linearGradient id="paint27_linear_2019_12621" x1="115.147" y1="107.079" x2="117.25" y2="104.124" gradientUnits="userSpaceOnUse">
<stop stop-color="#006747"/>
<stop offset="1" stop-color="#008F62"/>
</linearGradient>
<linearGradient id="paint28_linear_2019_12621" x1="102.077" y1="121.051" x2="121.069" y2="113.609" gradientUnits="userSpaceOnUse">
<stop stop-color="#212547"/>
<stop offset="1" stop-color="#414B72"/>
</linearGradient>
<linearGradient id="paint29_linear_2019_12621" x1="93.9073" y1="116.768" x2="89.9544" y2="120.156" gradientUnits="userSpaceOnUse">
<stop stop-color="#704834"/>
<stop offset="1" stop-color="#AB6D50"/>
</linearGradient>
<linearGradient id="paint30_linear_2019_12621" x1="89.7518" y1="118.881" x2="94.3735" y2="118.881" gradientUnits="userSpaceOnUse">
<stop stop-color="#212547"/>
<stop offset="1" stop-color="#414B72"/>
</linearGradient>
<linearGradient id="paint31_linear_2019_12621" x1="95.451" y1="119.679" x2="94.7912" y2="116.744" gradientUnits="userSpaceOnUse">
<stop stop-color="#212547"/>
<stop offset="1" stop-color="#414B72"/>
</linearGradient>
<linearGradient id="paint32_linear_2019_12621" x1="100.324" y1="151.658" x2="69.9186" y2="112.569" gradientUnits="userSpaceOnUse">
<stop stop-color="#212547"/>
<stop offset="1" stop-color="#414B72"/>
</linearGradient>
<linearGradient id="paint33_linear_2019_12621" x1="85.4289" y1="150.322" x2="87.1286" y2="160.52" gradientUnits="userSpaceOnUse">
<stop stop-color="#212547"/>
<stop offset="1" stop-color="#414B72"/>
</linearGradient>
<linearGradient id="paint34_linear_2019_12621" x1="103.881" y1="140.458" x2="54.0287" y2="137.626" gradientUnits="userSpaceOnUse">
<stop stop-color="#212547"/>
<stop offset="1" stop-color="#414B72"/>
</linearGradient>
<linearGradient id="paint35_linear_2019_12621" x1="86.6211" y1="143.861" x2="84.7326" y2="153.681" gradientUnits="userSpaceOnUse">
<stop stop-color="#212547"/>
<stop offset="1" stop-color="#414B72"/>
</linearGradient>
<linearGradient id="paint36_linear_2019_12621" x1="88.9856" y1="130.258" x2="88.9856" y2="140.456" gradientUnits="userSpaceOnUse">
<stop stop-color="#212547"/>
<stop offset="1" stop-color="#414B72"/>
</linearGradient>
<linearGradient id="paint37_linear_2019_12621" x1="98.2006" y1="132.048" x2="73.0854" y2="129.405" gradientUnits="userSpaceOnUse">
<stop stop-color="#212547"/>
<stop offset="1" stop-color="#414B72"/>
</linearGradient>
<linearGradient id="paint38_linear_2019_12621" x1="96.0797" y1="152.198" x2="70.9646" y2="149.555" gradientUnits="userSpaceOnUse">
<stop stop-color="#212547"/>
<stop offset="1" stop-color="#414B72"/>
</linearGradient>
<linearGradient id="paint39_linear_2019_12621" x1="98.2006" y1="132.048" x2="73.0854" y2="129.405" gradientUnits="userSpaceOnUse">
<stop stop-color="#212547"/>
<stop offset="1" stop-color="#414B72"/>
</linearGradient>
<linearGradient id="paint40_linear_2019_12621" x1="89.8057" y1="122.873" x2="90.1834" y2="132.315" gradientUnits="userSpaceOnUse">
<stop stop-color="#212547"/>
<stop offset="1" stop-color="#414B72"/>
</linearGradient>
<linearGradient id="paint41_linear_2019_12621" x1="84.9646" y1="132.751" x2="76.9981" y2="130.459" gradientUnits="userSpaceOnUse">
<stop stop-color="#212547"/>
<stop offset="1" stop-color="#414B72"/>
</linearGradient>
<linearGradient id="paint42_linear_2019_12621" x1="93.1319" y1="132.217" x2="85.1654" y2="129.925" gradientUnits="userSpaceOnUse">
<stop stop-color="#212547"/>
<stop offset="1" stop-color="#414B72"/>
</linearGradient>
<linearGradient id="paint43_linear_2019_12621" x1="81.2525" y1="152.381" x2="73.286" y2="150.089" gradientUnits="userSpaceOnUse">
<stop stop-color="#212547"/>
<stop offset="1" stop-color="#414B72"/>
</linearGradient>
<linearGradient id="paint44_linear_2019_12621" x1="89.4198" y1="151.846" x2="81.4533" y2="149.554" gradientUnits="userSpaceOnUse">
<stop stop-color="#212547"/>
<stop offset="1" stop-color="#414B72"/>
</linearGradient>
<linearGradient id="paint45_linear_2019_12621" x1="52.5944" y1="241.759" x2="48.1851" y2="244.055" gradientUnits="userSpaceOnUse">
<stop stop-color="#1F2242"/>
<stop offset="1" stop-color="#414B72"/>
</linearGradient>
<linearGradient id="paint46_linear_2019_12621" x1="58.1646" y1="243.817" x2="53.8183" y2="246.263" gradientUnits="userSpaceOnUse">
<stop stop-color="#1F2242"/>
<stop offset="1" stop-color="#414B72"/>
</linearGradient>
<linearGradient id="paint47_linear_2019_12621" x1="65.0617" y1="245.575" x2="60.4867" y2="248.734" gradientUnits="userSpaceOnUse">
<stop stop-color="#1F2242"/>
<stop offset="1" stop-color="#414B72"/>
</linearGradient>
<linearGradient id="paint48_linear_2019_12621" x1="71.5168" y1="248.642" x2="67.1472" y2="249.776" gradientUnits="userSpaceOnUse">
<stop stop-color="#1F2242"/>
<stop offset="1" stop-color="#414B72"/>
</linearGradient>
<linearGradient id="paint49_linear_2019_12621" x1="74.6252" y1="189.723" x2="106.819" y2="200.143" gradientUnits="userSpaceOnUse">
<stop stop-color="#1F2242"/>
<stop offset="1" stop-color="#414B72"/>
</linearGradient>
<linearGradient id="paint50_linear_2019_12621" x1="69.1485" y1="191.327" x2="89.5871" y2="201.591" gradientUnits="userSpaceOnUse">
<stop stop-color="#1F2242"/>
<stop offset="1" stop-color="#414B72"/>
</linearGradient>
<linearGradient id="paint51_linear_2019_12621" x1="97.7882" y1="155.463" x2="88.5826" y2="185.752" gradientUnits="userSpaceOnUse">
<stop stop-color="#1F2242"/>
<stop offset="1" stop-color="#414B72"/>
</linearGradient>
<linearGradient id="paint52_linear_2019_12621" x1="61.1685" y1="242.979" x2="76.9635" y2="194.177" gradientUnits="userSpaceOnUse">
<stop stop-color="#1F2242"/>
<stop offset="0.4122" stop-color="#212444"/>
<stop offset="0.6167" stop-color="#262A4C"/>
<stop offset="0.7754" stop-color="#2F3659"/>
<stop offset="0.9098" stop-color="#3C466C"/>
<stop offset="0.9459" stop-color="#414B72"/>
</linearGradient>
<linearGradient id="paint53_linear_2019_12621" x1="62.6871" y1="214.681" x2="72.5385" y2="217.673" gradientUnits="userSpaceOnUse">
<stop stop-color="#1F2242"/>
<stop offset="1" stop-color="#414B72"/>
</linearGradient>
<linearGradient id="paint54_linear_2019_12621" x1="74.6311" y1="224.359" x2="73.6131" y2="231.992" gradientUnits="userSpaceOnUse">
<stop stop-color="#1F2242"/>
<stop offset="1" stop-color="#414B72"/>
</linearGradient>
<linearGradient id="paint55_linear_2019_12621" x1="72.7865" y1="225.826" x2="75.3791" y2="219.315" gradientUnits="userSpaceOnUse">
<stop stop-color="#1F2242"/>
<stop offset="1" stop-color="#414B72"/>
</linearGradient>
<linearGradient id="paint56_linear_2019_12621" x1="97.7872" y1="155.463" x2="88.5817" y2="185.752" gradientUnits="userSpaceOnUse">
<stop stop-color="#1F2242"/>
<stop offset="1" stop-color="#414B72"/>
</linearGradient>
<linearGradient id="paint57_linear_2019_12621" x1="94.9134" y1="154.59" x2="85.7079" y2="184.879" gradientUnits="userSpaceOnUse">
<stop stop-color="#1F2242"/>
<stop offset="1" stop-color="#414B72"/>
</linearGradient>
<linearGradient id="paint58_linear_2019_12621" x1="93.8822" y1="160.177" x2="107.202" y2="157.589" gradientUnits="userSpaceOnUse">
<stop stop-color="#FFA966"/>
<stop offset="1" stop-color="#FECB8F"/>
</linearGradient>
<linearGradient id="paint59_linear_2019_12621" x1="103.47" y1="122.253" x2="114.834" y2="126.88" gradientUnits="userSpaceOnUse">
<stop stop-color="#006747"/>
<stop offset="1" stop-color="#008F62"/>
</linearGradient>
<linearGradient id="paint60_linear_2019_12621" x1="99.9527" y1="144.207" x2="107.884" y2="147.356" gradientUnits="userSpaceOnUse">
<stop stop-color="#006747"/>
<stop offset="1" stop-color="#008F62"/>
</linearGradient>
</defs>
</svg>
